<?xml version="1.0" encoding="UTF-8"?>
<svg xmlns="http://www.w3.org/2000/svg" xmlns:xlink="http://www.w3.org/1999/xlink" width="375pt" height="374.999991pt" viewBox="0 0 375 374.999991" version="1.2">
<defs>
<clipPath id="clip1">
  <path d="M 112.5 112.5 L 262.5 112.5 L 262.5 262.5 L 112.5 262.5 Z M 112.5 112.5 "/>
</clipPath>
</defs>
<g id="surface1">
<path style=" stroke:none;fill-rule:nonzero;fill:rgb(100%,100%,100%);fill-opacity:1;" d="M 251.25 187.5 C 251.25 222.75 222.75 251.25 187.5 251.25 C 152.25 251.25 123.75 222.75 123.75 187.5 C 123.75 152.25 152.25 123.75 187.5 123.75 C 222.75 123.75 251.25 152.25 251.25 187.5 Z M 251.25 187.5 "/>
<path style=" stroke:none;fill-rule:nonzero;fill:rgb(27.059937%,35.289001%,39.219666%);fill-opacity:1;" d="M 176.25 251.25 L 176.25 230.625 C 176.25 229.5 177 228.75 178.125 228.75 C 179.25 228.75 180 229.5 180 230.625 L 180 251.25 L 187.5 251.25 L 187.5 226.875 C 187.5 225.75 188.25 225 189.375 225 C 190.5 225 191.25 225.75 191.25 226.875 L 191.25 251.25 L 198.75 251.25 L 198.75 230.625 C 198.75 229.5 199.5 228.75 200.625 228.75 C 201.75 228.75 202.5 229.5 202.5 230.625 L 202.5 251.25 L 209.25 251.25 C 210 250.125 210 249 210 247.125 L 210 232.5 C 210 224.25 202.875 213 193.875 213 L 184.5 213 C 175.875 213 168.375 224.625 168.375 232.5 L 168.375 247.125 C 168.375 248.625 168.75 250.125 169.125 251.25 Z M 247.875 196.5 C 247.875 196.5 243 195 238.875 195 C 238.875 195 238.5 195 238.5 195 C 234.375 195 227.625 196.125 227.625 196.125 C 227.25 196.125 227.25 196.125 227.25 195.75 C 227.25 195.375 227.25 195.375 227.625 195.375 C 228 195.375 235.125 194.25 239.25 194.25 C 243.375 194.25 248.25 195.75 248.625 195.75 C 249 195.75 249 196.125 249 196.5 C 248.25 196.125 248.25 196.5 247.875 196.5 Z M 246.75 199.5 C 246.75 199.5 241.5 198 237 198 C 233.625 198 225.75 198.75 225.375 198.75 C 225 198.75 225 198.75 225 198.375 C 225 198 225 198 225.375 198 C 225.75 198 233.625 197.25 237 197.25 C 241.875 197.25 246.75 198.75 246.75 198.75 C 247.125 198.75 247.125 199.125 247.125 199.5 C 247.125 199.125 247.125 199.5 246.75 199.5 Z M 126.75 196.5 C 126.375 196.5 126.375 196.5 126.375 196.125 C 126.375 195.75 126.375 195.75 126.75 195.375 C 129.75 194.625 135.75 193.5 139.125 193.5 C 142.125 193.5 152.25 194.25 152.625 194.25 C 153 194.25 153 194.625 153 194.625 C 153 195 152.625 195 152.625 195 C 152.625 195 142.5 194.25 139.5 194.25 C 135.375 195 129.75 195.75 126.75 196.5 Z M 128.25 202.125 C 128.25 202.125 127.875 202.125 127.875 201.75 C 127.875 201.375 127.875 201.375 127.875 201 C 128.25 201 133.125 198 138.75 197.25 C 143.625 196.5 153.75 197.625 154.5 197.625 C 154.875 197.625 154.875 198 154.875 198 C 154.875 198.375 154.5 198.375 154.5 198.375 C 154.5 198.375 144 197.25 139.125 198 C 133.5 199.125 128.25 202.125 128.25 202.125 Z M 128.25 202.125 "/>
<path style=" stroke:none;fill-rule:nonzero;fill:rgb(27.059937%,35.289001%,39.219666%);fill-opacity:1;" d="M 150.75 185.625 C 150.75 169.125 168 153.75 189.375 153.75 C 210.75 153.75 228 168.75 228 185.625 C 228 202.5 215.625 213.75 189.375 213.75 C 163.125 213.75 150.75 202.125 150.75 185.625 Z M 150.75 185.625 "/>
<path style=" stroke:none;fill-rule:nonzero;fill:rgb(27.059937%,35.289001%,39.219666%);fill-opacity:1;" d="M 204.75 158.625 C 204.75 158.625 211.125 150 222.75 150 C 227.25 154.5 224.25 168 222.75 171.75 Z M 174 158.625 C 174 158.625 167.625 150 156 150 C 151.5 154.5 154.5 168 156 171.75 Z M 172.875 232.125 C 172.875 232.125 164.25 232.125 162.375 232.125 C 157.875 232.125 153.75 230.25 151.875 226.5 C 149.625 222.375 147.75 217.875 142.125 214.125 C 141 213.375 141.75 212.625 143.625 212.625 C 145.5 213 148.875 213.375 151.5 216.75 C 154.125 220.125 157.125 224.25 162 224.25 C 166.875 224.25 172.125 224.25 175.125 220.875 Z M 172.875 232.125 "/>
<g clip-path="url(#clip1)" clip-rule="nonzero">
<path style=" stroke:none;fill-rule:nonzero;fill:rgb(0%,73.728943%,83.139038%);fill-opacity:1;" d="M 187.5 112.5 C 146.25 112.5 112.5 146.25 112.5 187.5 C 112.5 228.75 146.25 262.5 187.5 262.5 C 228.75 262.5 262.5 228.75 262.5 187.5 C 262.5 146.25 228.75 112.5 187.5 112.5 Z M 187.5 247.5 C 154.5 247.5 127.5 220.5 127.5 187.5 C 127.5 154.5 154.5 127.5 187.5 127.5 C 220.5 127.5 247.5 154.5 247.5 187.5 C 247.5 220.5 220.5 247.5 187.5 247.5 Z M 187.5 247.5 "/>
</g>
</g>
</svg>
