<?xml version="1.0" encoding="UTF-8"?>
<svg xmlns="http://www.w3.org/2000/svg" xmlns:xlink="http://www.w3.org/1999/xlink" width="375pt" height="374.999991pt" viewBox="0 0 375 374.999991" version="1.2">
<defs>
<clipPath id="clip1">
  <path d="M 116 116.15625 L 259 116.15625 L 259 258.46875 L 116 258.46875 Z M 116 116.15625 "/>
</clipPath>
</defs>
<g id="surface1">
<g clip-path="url(#clip1)" clip-rule="nonzero">
<path style=" stroke:none;fill-rule:nonzero;fill:rgb(0.779724%,53.329468%,81.959534%);fill-opacity:1;" d="M 187.5 116.15625 C 186.335938 116.15625 185.171875 116.183594 184.007812 116.242188 C 182.84375 116.296875 181.683594 116.382812 180.523438 116.496094 C 179.367188 116.613281 178.210938 116.753906 177.058594 116.925781 C 175.90625 117.09375 174.757812 117.292969 173.617188 117.519531 C 172.472656 117.746094 171.335938 118 170.207031 118.285156 C 169.078125 118.566406 167.957031 118.875 166.839844 119.210938 C 165.726562 119.550781 164.621094 119.914062 163.523438 120.304688 C 162.429688 120.695312 161.34375 121.113281 160.265625 121.558594 C 159.191406 122.003906 158.125 122.472656 157.074219 122.972656 C 156.019531 123.46875 154.980469 123.988281 153.953125 124.539062 C 152.925781 125.085938 151.914062 125.65625 150.914062 126.253906 C 149.914062 126.851562 148.929688 127.472656 147.960938 128.117188 C 146.992188 128.765625 146.042969 129.433594 145.105469 130.125 C 144.171875 130.816406 143.253906 131.53125 142.351562 132.269531 C 141.453125 133.003906 140.570312 133.761719 139.707031 134.542969 C 138.84375 135.324219 138 136.125 137.179688 136.945312 C 136.355469 137.765625 135.550781 138.609375 134.769531 139.46875 C 133.988281 140.328125 133.226562 141.207031 132.488281 142.105469 C 131.75 143.003906 131.03125 143.921875 130.339844 144.851562 C 129.644531 145.785156 128.976562 146.734375 128.328125 147.703125 C 127.679688 148.667969 127.058594 149.648438 126.460938 150.644531 C 125.859375 151.640625 125.285156 152.652344 124.738281 153.675781 C 124.1875 154.699219 123.664062 155.738281 123.167969 156.789062 C 122.667969 157.835938 122.195312 158.898438 121.75 159.972656 C 121.304688 161.046875 120.886719 162.128906 120.496094 163.222656 C 120.101562 164.316406 119.738281 165.417969 119.398438 166.53125 C 119.058594 167.644531 118.75 168.761719 118.46875 169.890625 C 118.183594 171.015625 117.929688 172.148438 117.703125 173.289062 C 117.472656 174.425781 117.273438 175.570312 117.105469 176.71875 C 116.933594 177.871094 116.789062 179.023438 116.675781 180.179688 C 116.5625 181.335938 116.476562 182.492188 116.417969 183.652344 C 116.363281 184.8125 116.335938 185.972656 116.335938 187.136719 C 116.335938 188.296875 116.363281 189.457031 116.417969 190.617188 C 116.476562 191.777344 116.5625 192.9375 116.675781 194.09375 C 116.789062 195.25 116.933594 196.402344 117.105469 197.550781 C 117.273438 198.699219 117.472656 199.84375 117.703125 200.984375 C 117.929688 202.121094 118.183594 203.253906 118.46875 204.382812 C 118.75 205.507812 119.058594 206.628906 119.398438 207.738281 C 119.738281 208.851562 120.101562 209.953125 120.496094 211.046875 C 120.886719 212.140625 121.304688 213.222656 121.75 214.296875 C 122.195312 215.371094 122.667969 216.433594 123.167969 217.484375 C 123.664062 218.53125 124.1875 219.570312 124.738281 220.59375 C 125.285156 221.617188 125.859375 222.628906 126.460938 223.625 C 127.058594 224.621094 127.679688 225.601562 128.328125 226.570312 C 128.976562 227.535156 129.644531 228.484375 130.339844 229.417969 C 131.03125 230.351562 131.75 231.265625 132.488281 232.164062 C 133.226562 233.0625 133.988281 233.941406 134.769531 234.800781 C 135.550781 235.664062 136.355469 236.503906 137.179688 237.324219 C 138 238.144531 138.84375 238.945312 139.707031 239.726562 C 140.570312 240.507812 141.453125 241.265625 142.351562 242.003906 C 143.253906 242.738281 144.171875 243.453125 145.105469 244.144531 C 146.042969 244.839844 146.992188 245.507812 147.960938 246.152344 C 148.929688 246.796875 149.914062 247.417969 150.914062 248.015625 C 151.914062 248.613281 152.925781 249.183594 153.953125 249.734375 C 154.980469 250.28125 156.019531 250.800781 157.074219 251.300781 C 158.125 251.796875 159.191406 252.265625 160.265625 252.710938 C 161.34375 253.15625 162.429688 253.574219 163.523438 253.964844 C 164.621094 254.355469 165.726562 254.71875 166.839844 255.058594 C 167.957031 255.394531 169.078125 255.703125 170.207031 255.988281 C 171.335938 256.269531 172.472656 256.523438 173.617188 256.75 C 174.757812 256.976562 175.90625 257.175781 177.058594 257.347656 C 178.210938 257.515625 179.367188 257.660156 180.523438 257.773438 C 181.683594 257.886719 182.84375 257.972656 184.007812 258.027344 C 185.171875 258.085938 186.335938 258.113281 187.5 258.113281 C 188.664062 258.113281 189.828125 258.085938 190.992188 258.027344 C 192.15625 257.972656 193.316406 257.886719 194.476562 257.773438 C 195.632812 257.660156 196.789062 257.515625 197.941406 257.347656 C 199.09375 257.175781 200.242188 256.976562 201.382812 256.75 C 202.527344 256.523438 203.660156 256.269531 204.792969 255.988281 C 205.921875 255.703125 207.042969 255.394531 208.160156 255.058594 C 209.273438 254.71875 210.378906 254.355469 211.476562 253.964844 C 212.570312 253.574219 213.65625 253.15625 214.734375 252.710938 C 215.808594 252.265625 216.875 251.796875 217.925781 251.300781 C 218.980469 250.800781 220.019531 250.28125 221.046875 249.734375 C 222.074219 249.183594 223.085938 248.613281 224.085938 248.015625 C 225.085938 247.417969 226.070312 246.796875 227.039062 246.152344 C 228.007812 245.507812 228.957031 244.839844 229.894531 244.144531 C 230.828125 243.453125 231.746094 242.738281 232.648438 242.003906 C 233.546875 241.265625 234.429688 240.507812 235.292969 239.726562 C 236.15625 238.945312 237 238.144531 237.820312 237.324219 C 238.644531 236.503906 239.449219 235.664062 240.230469 234.800781 C 241.011719 233.941406 241.773438 233.0625 242.511719 232.164062 C 243.25 231.265625 243.96875 230.351562 244.660156 229.417969 C 245.355469 228.484375 246.023438 227.535156 246.671875 226.570312 C 247.320312 225.601562 247.941406 224.621094 248.539062 223.625 C 249.140625 222.628906 249.714844 221.617188 250.261719 220.59375 C 250.8125 219.570312 251.335938 218.53125 251.832031 217.484375 C 252.332031 216.433594 252.804688 215.371094 253.25 214.296875 C 253.695312 213.222656 254.113281 212.140625 254.503906 211.046875 C 254.898438 209.953125 255.261719 208.851562 255.601562 207.738281 C 255.941406 206.628906 256.25 205.507812 256.53125 204.382812 C 256.816406 203.253906 257.070312 202.121094 257.296875 200.984375 C 257.527344 199.84375 257.726562 198.699219 257.894531 197.550781 C 258.066406 196.402344 258.207031 195.25 258.324219 194.09375 C 258.4375 192.9375 258.523438 191.777344 258.582031 190.617188 C 258.636719 189.457031 258.664062 188.296875 258.664062 187.136719 C 258.664062 185.972656 258.636719 184.8125 258.582031 183.652344 C 258.523438 182.492188 258.4375 181.335938 258.324219 180.179688 C 258.207031 179.023438 258.066406 177.871094 257.894531 176.71875 C 257.726562 175.570312 257.527344 174.425781 257.296875 173.289062 C 257.070312 172.148438 256.816406 171.015625 256.53125 169.890625 C 256.25 168.761719 255.941406 167.644531 255.601562 166.53125 C 255.261719 165.417969 254.898438 164.316406 254.503906 163.222656 C 254.113281 162.128906 253.695312 161.046875 253.25 159.972656 C 252.804688 158.898438 252.332031 157.835938 251.832031 156.789062 C 251.335938 155.738281 250.8125 154.699219 250.261719 153.675781 C 249.714844 152.652344 249.140625 151.640625 248.539062 150.644531 C 247.941406 149.648438 247.320312 148.667969 246.671875 147.703125 C 246.023438 146.734375 245.355469 145.785156 244.660156 144.851562 C 243.96875 143.921875 243.25 143.003906 242.511719 142.105469 C 241.773438 141.207031 241.011719 140.328125 240.230469 139.46875 C 239.449219 138.609375 238.644531 137.765625 237.820312 136.945312 C 237 136.125 236.15625 135.324219 235.292969 134.542969 C 234.429688 133.761719 233.546875 133.003906 232.648438 132.269531 C 231.746094 131.53125 230.828125 130.816406 229.894531 130.125 C 228.957031 129.433594 228.007812 128.765625 227.039062 128.117188 C 226.070312 127.472656 225.085938 126.851562 224.085938 126.253906 C 223.085938 125.65625 222.074219 125.085938 221.046875 124.539062 C 220.019531 123.988281 218.980469 123.46875 217.925781 122.972656 C 216.875 122.472656 215.808594 122.003906 214.734375 121.558594 C 213.65625 121.113281 212.570312 120.695312 211.476562 120.304688 C 210.378906 119.914062 209.273438 119.550781 208.160156 119.210938 C 207.042969 118.875 205.921875 118.566406 204.792969 118.285156 C 203.660156 118 202.527344 117.746094 201.382812 117.519531 C 200.242188 117.292969 199.09375 117.09375 197.941406 116.925781 C 196.789062 116.753906 195.632812 116.613281 194.476562 116.496094 C 193.316406 116.382812 192.15625 116.296875 190.992188 116.242188 C 189.828125 116.183594 188.664062 116.15625 187.5 116.15625 Z M 187.5 116.15625 "/>
</g>
<path style=" stroke:none;fill-rule:nonzero;fill:rgb(100%,100%,100%);fill-opacity:1;" d="M 151.917969 169.390625 L 166.148438 169.390625 L 166.148438 222.625 L 151.917969 222.625 Z M 158.992188 162.292969 L 158.914062 162.292969 C 154.664062 162.292969 151.917969 159.132812 151.917969 155.191406 C 151.917969 151.164062 154.75 148.097656 159.074219 148.097656 C 163.402344 148.097656 166.070312 151.164062 166.148438 155.191406 C 166.148438 159.132812 163.402344 162.292969 158.992188 162.292969 Z M 226.640625 188.910156 C 226.640625 178.128906 217.878906 169.390625 207.070312 169.390625 C 200.445312 169.390625 194.597656 172.683594 191.058594 177.710938 L 191.058594 169.390625 L 176.824219 169.390625 L 176.824219 222.625 L 191.058594 222.625 L 191.058594 194.234375 C 191.058594 188.351562 195.835938 183.585938 201.734375 183.585938 C 207.628906 183.585938 212.40625 188.351562 212.40625 194.234375 L 212.40625 222.625 L 226.640625 222.625 C 226.640625 222.625 226.640625 190.402344 226.640625 188.910156 Z M 226.640625 188.910156 "/>
</g>
</svg>
