<?xml version="1.0" encoding="UTF-8"?>
<svg xmlns="http://www.w3.org/2000/svg" xmlns:xlink="http://www.w3.org/1999/xlink" width="375pt" height="374.999991pt" viewBox="0 0 375 374.999991" version="1.2">
<defs>
<clipPath id="clip1">
  <path d="M 115 116 L 260 116 L 260 259.367188 L 115 259.367188 Z M 115 116 "/>
</clipPath>
</defs>
<g id="surface1">
<g clip-path="url(#clip1)" clip-rule="nonzero">
<path style=" stroke:none;fill-rule:nonzero;fill:rgb(16.079712%,18.429565%,19.999695%);fill-opacity:1;" d="M 207.792969 187.894531 L 255.117188 140.792969 C 260.730469 135.210938 260.730469 126.15625 255.117188 120.570312 C 249.503906 114.988281 240.417969 114.988281 234.804688 120.570312 L 187.480469 167.671875 L 140.15625 120.574219 C 134.550781 114.988281 125.453125 114.988281 119.839844 120.574219 C 114.230469 126.15625 114.230469 135.210938 119.839844 140.796875 L 167.164062 187.894531 L 119.722656 235.109375 C 114.117188 240.691406 114.117188 249.746094 119.722656 255.328125 C 122.527344 258.121094 126.207031 259.519531 129.878906 259.519531 C 133.554688 259.519531 137.234375 258.121094 140.042969 255.328125 L 187.476562 208.117188 L 234.796875 255.214844 C 237.601562 258.007812 241.277344 259.402344 244.953125 259.402344 C 248.625 259.402344 252.300781 258.007812 255.109375 255.214844 C 260.71875 249.632812 260.71875 240.578125 255.109375 234.996094 Z M 207.792969 187.894531 "/>
</g>
</g>
</svg>
