<?xml version="1.0" encoding="UTF-8"?>
<svg xmlns="http://www.w3.org/2000/svg" xmlns:xlink="http://www.w3.org/1999/xlink" width="1440pt" height="809.999993pt" viewBox="0 0 1440 809.999993" version="1.2">
<g id="surface1">
<path style=" stroke:none;fill-rule:nonzero;fill:rgb(100%,52.159119%,32.548523%);fill-opacity:1;" d="M 768.96875 -102.179688 C 747.996094 -102.179688 727.035156 -101.957031 706.085938 -101.503906 C 685.136719 -101.054688 664.226562 -100.382812 643.351562 -99.484375 C 622.480469 -98.582031 601.671875 -97.460938 580.921875 -96.117188 C 560.175781 -94.769531 539.515625 -93.203125 518.945312 -91.414062 C 498.375 -89.625 477.917969 -87.617188 457.570312 -85.386719 C 437.226562 -83.160156 417.019531 -80.714844 396.949219 -78.050781 C 376.878906 -75.390625 356.96875 -72.511719 337.21875 -69.421875 C 317.472656 -66.335938 297.910156 -63.035156 278.53125 -59.523438 C 259.15625 -56.015625 239.984375 -52.300781 221.027344 -48.378906 C 202.066406 -44.457031 183.335938 -40.335938 164.839844 -36.011719 C 146.34375 -31.691406 128.097656 -27.171875 110.109375 -22.457031 C 92.117188 -17.742188 74.402344 -12.835938 56.964844 -7.742188 C 39.527344 -2.644531 22.382812 2.632812 5.535156 8.097656 C -11.308594 13.558594 -27.839844 19.199219 -44.054688 25.019531 C -60.265625 30.835938 -76.144531 36.824219 -91.683594 42.984375 C -107.222656 49.140625 -122.410156 55.464844 -137.242188 61.949219 C -152.070312 68.433594 -166.53125 75.074219 -180.613281 81.867188 C -194.699219 88.664062 -208.394531 95.605469 -221.699219 102.695312 C -235.007812 109.785156 -247.90625 117.011719 -260.402344 124.378906 C -272.894531 131.742188 -284.96875 139.238281 -296.621094 146.863281 C -308.273438 154.492188 -319.492188 162.234375 -330.273438 170.101562 C -341.054688 177.96875 -351.390625 185.945312 -361.277344 194.035156 C -371.164062 202.121094 -380.59375 210.3125 -389.558594 218.601562 C -398.527344 226.890625 -407.023438 235.273438 -415.050781 243.746094 C -423.078125 252.21875 -430.625 260.773438 -437.691406 269.40625 C -444.753906 278.042969 -451.332031 286.746094 -457.421875 295.523438 C -463.507812 304.300781 -469.101562 313.136719 -474.199219 322.03125 C -479.292969 330.925781 -483.886719 339.871094 -487.980469 348.867188 C -492.070312 357.863281 -495.65625 366.894531 -498.734375 375.96875 C -501.8125 385.039062 -504.378906 394.136719 -506.433594 403.265625 C -508.488281 412.390625 -510.03125 421.535156 -511.0625 430.695312 C -512.089844 439.855469 -512.605469 449.019531 -512.605469 458.191406 C -512.605469 467.363281 -512.089844 476.527344 -511.0625 485.6875 C -510.03125 494.847656 -508.488281 503.988281 -506.433594 513.117188 C -504.378906 522.242188 -501.8125 531.34375 -498.734375 540.414062 C -495.65625 549.484375 -492.070312 558.519531 -487.980469 567.515625 C -483.886719 576.507812 -479.292969 585.453125 -474.199219 594.351562 C -469.101562 603.246094 -463.507812 612.082031 -457.421875 620.859375 C -451.332031 629.632812 -444.753906 638.339844 -437.691406 646.972656 C -430.625 655.609375 -423.078125 664.164062 -415.050781 672.636719 C -407.023438 681.109375 -398.527344 689.488281 -389.558594 697.78125 C -380.59375 706.070312 -371.164062 714.261719 -361.277344 722.347656 C -351.390625 730.4375 -341.054688 738.414062 -330.273438 746.28125 C -319.492188 754.144531 -308.273438 761.890625 -296.621094 769.515625 C -284.96875 777.140625 -272.894531 784.636719 -260.402344 792.003906 C -247.90625 799.371094 -235.007812 806.597656 -221.699219 813.6875 C -208.394531 820.777344 -194.699219 827.71875 -180.613281 834.511719 C -166.53125 841.308594 -152.070312 847.949219 -137.242188 854.433594 C -122.410156 860.917969 -107.222656 867.238281 -91.683594 873.398438 C -76.144531 879.558594 -60.265625 885.546875 -44.054688 891.363281 C -27.839844 897.183594 -11.308594 902.824219 5.535156 908.285156 C 22.382812 913.75 39.527344 919.027344 56.964844 924.121094 C 74.402344 929.21875 92.117188 934.121094 110.109375 938.835938 C 128.097656 943.550781 146.34375 948.070312 164.839844 952.394531 C 183.335938 956.71875 202.066406 960.839844 221.027344 964.761719 C 239.984375 968.683594 259.15625 972.398438 278.53125 975.90625 C 297.910156 979.417969 317.472656 982.714844 337.21875 985.804688 C 356.96875 988.894531 376.878906 991.769531 396.949219 994.433594 C 417.019531 997.09375 437.226562 999.539062 457.570312 1001.769531 C 477.917969 1003.996094 498.375 1006.003906 518.945312 1007.796875 C 539.515625 1009.585938 560.175781 1011.152344 580.921875 1012.496094 C 601.671875 1013.84375 622.480469 1014.964844 643.351562 1015.863281 C 664.226562 1016.761719 685.136719 1017.4375 706.085938 1017.886719 C 727.035156 1018.335938 747.996094 1018.5625 768.96875 1018.5625 C 789.941406 1018.5625 810.90625 1018.335938 831.851562 1017.886719 C 852.800781 1017.4375 873.710938 1016.761719 894.585938 1015.863281 C 915.457031 1014.964844 936.269531 1013.84375 957.015625 1012.496094 C 977.761719 1011.152344 998.421875 1009.585938 1018.992188 1007.792969 C 1039.5625 1006.003906 1060.019531 1003.996094 1080.367188 1001.769531 C 1100.710938 999.539062 1120.917969 997.09375 1140.992188 994.433594 C 1161.0625 991.769531 1180.972656 988.894531 1200.71875 985.804688 C 1220.464844 982.714844 1240.027344 979.417969 1259.40625 975.90625 C 1278.785156 972.398438 1297.953125 968.679688 1316.914062 964.761719 C 1335.875 960.839844 1354.601562 956.71875 1373.097656 952.394531 C 1391.597656 948.070312 1409.839844 943.550781 1427.832031 938.835938 C 1445.820312 934.121094 1463.535156 929.21875 1480.972656 924.121094 C 1498.414062 919.027344 1515.554688 913.75 1532.402344 908.285156 C 1549.25 902.824219 1565.777344 897.183594 1581.992188 891.363281 C 1598.203125 885.546875 1614.082031 879.558594 1629.621094 873.398438 C 1645.164062 867.238281 1660.347656 860.917969 1675.179688 854.433594 C 1690.011719 847.949219 1704.46875 841.308594 1718.554688 834.511719 C 1732.636719 827.71875 1746.332031 820.777344 1759.640625 813.6875 C 1772.945312 806.597656 1785.84375 799.371094 1798.339844 792.003906 C 1810.832031 784.636719 1822.90625 777.140625 1834.558594 769.515625 C 1846.210938 761.890625 1857.429688 754.144531 1868.210938 746.28125 C 1878.996094 738.414062 1889.328125 730.4375 1899.21875 722.347656 C 1909.105469 714.261719 1918.53125 706.070312 1927.5 697.78125 C 1936.464844 689.488281 1944.964844 681.109375 1952.988281 672.636719 C 1961.015625 664.164062 1968.5625 655.609375 1975.628906 646.972656 C 1982.695312 638.339844 1989.269531 629.632812 1995.359375 620.859375 C 2001.449219 612.082031 2007.039062 603.246094 2012.136719 594.351562 C 2017.234375 585.453125 2021.828125 576.507812 2025.917969 567.515625 C 2030.011719 558.519531 2033.59375 549.484375 2036.671875 540.414062 C 2039.75 531.34375 2042.316406 522.242188 2044.371094 513.117188 C 2046.429688 503.988281 2047.972656 494.847656 2049 485.6875 C 2050.027344 476.527344 2050.542969 467.363281 2050.542969 458.191406 C 2050.542969 449.019531 2050.027344 439.855469 2049 430.695312 C 2047.972656 421.535156 2046.429688 412.390625 2044.371094 403.265625 C 2042.316406 394.136719 2039.75 385.039062 2036.671875 375.96875 C 2033.59375 366.894531 2030.011719 357.863281 2025.917969 348.867188 C 2021.828125 339.871094 2017.234375 330.925781 2012.136719 322.03125 C 2007.039062 313.136719 2001.449219 304.300781 1995.359375 295.523438 C 1989.269531 286.746094 1982.695312 278.042969 1975.628906 269.40625 C 1968.5625 260.773438 1961.015625 252.21875 1952.988281 243.746094 C 1944.964844 235.273438 1936.464844 226.890625 1927.5 218.601562 C 1918.53125 210.3125 1909.105469 202.121094 1899.21875 194.035156 C 1889.328125 185.945312 1878.996094 177.96875 1868.210938 170.101562 C 1857.429688 162.234375 1846.210938 154.492188 1834.558594 146.863281 C 1822.90625 139.238281 1810.832031 131.742188 1798.339844 124.378906 C 1785.84375 117.011719 1772.945312 109.785156 1759.640625 102.695312 C 1746.332031 95.605469 1732.636719 88.664062 1718.554688 81.867188 C 1704.46875 75.074219 1690.011719 68.433594 1675.179688 61.949219 C 1660.347656 55.464844 1645.164062 49.140625 1629.621094 42.984375 C 1614.082031 36.824219 1598.203125 30.835938 1581.992188 25.019531 C 1565.777344 19.199219 1549.25 13.558594 1532.402344 8.097656 C 1515.554688 2.632812 1498.414062 -2.644531 1480.972656 -7.742188 C 1463.535156 -12.835938 1445.820312 -17.742188 1427.832031 -22.457031 C 1409.839844 -27.171875 1391.597656 -31.691406 1373.097656 -36.011719 C 1354.601562 -40.335938 1335.875 -44.457031 1316.914062 -48.378906 C 1297.953125 -52.300781 1278.785156 -56.015625 1259.40625 -59.523438 C 1240.027344 -63.035156 1220.464844 -66.335938 1200.71875 -69.421875 C 1180.972656 -72.511719 1161.0625 -75.390625 1140.992188 -78.050781 C 1120.917969 -80.714844 1100.710938 -83.160156 1080.367188 -85.386719 C 1060.019531 -87.617188 1039.5625 -89.625 1018.992188 -91.414062 C 998.421875 -93.203125 977.761719 -94.769531 957.015625 -96.117188 C 936.269531 -97.460938 915.457031 -98.582031 894.585938 -99.484375 C 873.710938 -100.382812 852.800781 -101.054688 831.851562 -101.503906 C 810.90625 -101.957031 789.941406 -102.179688 768.96875 -102.179688 Z M 768.96875 -102.179688 "/>
<path style=" stroke:none;fill-rule:nonzero;fill:rgb(100%,56.469727%,38.819885%);fill-opacity:1;" d="M 1209.496094 -169.191406 L 1623.671875 -2.691406 L 1457.171875 411.480469 L 1043 244.984375 Z M 1209.496094 -169.191406 "/>
<path style=" stroke:none;fill-rule:nonzero;fill:rgb(100%,56.469727%,38.819885%);fill-opacity:1;" d="M -35.265625 512.574219 L 315.019531 629.867188 L 197.726562 980.148438 L -152.558594 862.855469 Z M -35.265625 512.574219 "/>
<path style=" stroke:none;fill-rule:nonzero;fill:rgb(100%,56.469727%,38.819885%);fill-opacity:1;" d="M 258.410156 -189.925781 L 547.101562 -116.226562 L 473.398438 172.464844 L 184.707031 98.765625 Z M 258.410156 -189.925781 "/>
<path style=" stroke:none;fill-rule:nonzero;fill:rgb(100%,56.469727%,38.819885%);fill-opacity:1;" d="M 1098.347656 563.421875 L 1186.617188 543.777344 L 1206.265625 632.046875 L 1117.996094 651.695312 Z M 1098.347656 563.421875 "/>
<path style=" stroke:none;fill-rule:nonzero;fill:rgb(100%,56.469727%,38.819885%);fill-opacity:1;" d="M 917.960938 -5.167969 L 950.296875 7.632812 L 937.496094 39.96875 L 905.160156 27.167969 Z M 917.960938 -5.167969 "/>
</g>
</svg>
