<?xml version="1.0" encoding="UTF-8"?>
<svg xmlns="http://www.w3.org/2000/svg" xmlns:xlink="http://www.w3.org/1999/xlink" width="375pt" height="374.999991pt" viewBox="0 0 375 374.999991" version="1.2">
<defs>
<clipPath id="clip1">
  <path d="M 263 174 L 336.933594 174 L 336.933594 201 L 263 201 Z M 263 174 "/>
</clipPath>
</defs>
<g id="surface1">
<path style=" stroke:none;fill-rule:nonzero;fill:rgb(78.039551%,92.939758%,90.19928%);fill-opacity:1;" d="M 321.121094 210.148438 C 322.21875 207.894531 323.191406 205.527344 324.03125 203.046875 C 333.65625 174.644531 319.097656 140.625 288.445312 132.414062 C 285.132812 90.808594 255.882812 62.265625 222.855469 57.394531 C 185.046875 51.820312 150.414062 75.832031 138.890625 113.992188 C 125.003906 109.074219 111.46875 109.671875 98.710938 117.125 C 92.925781 119.800781 87.632812 123.746094 82.882812 128.941406 C 75.910156 136.566406 71.378906 146.1875 69.53125 156.335938 C 66.796875 156.765625 64.109375 157.199219 61.574219 158.105469 C 46.804688 163.398438 37.484375 174.300781 34.929688 190.71875 C 33.339844 200.941406 36.550781 211.136719 38.339844 215.257812 C 45.417969 231.539062 61.820312 240.769531 78.488281 238.328125 C 79.316406 238.207031 80.523438 238.578125 81.238281 239.179688 C 82.117188 265.203125 94.757812 288.21875 113.71875 301.363281 C 144.136719 322.460938 183.277344 315.960938 207.972656 287.035156 C 218.550781 297.851562 231.144531 303.109375 245.933594 301.199219 C 260.644531 299.304688 272.066406 291.1875 280.394531 277.996094 C 284.246094 279.027344 287.894531 280.519531 291.667969 280.933594 C 306.445312 282.550781 318.445312 276.675781 327.246094 263.390625 C 330.617188 258.304688 333.804688 251.714844 333.804688 240.164062 C 333.804688 228.265625 329.078125 217.421875 321.121094 210.148438 Z M 321.121094 210.148438 "/>
<path style=" stroke:none;fill-rule:nonzero;fill:rgb(100%,100%,100%);fill-opacity:1;" d="M 64.457031 174.789062 L 27.898438 174.789062 C 26.886719 174.789062 26.070312 173.96875 26.070312 172.960938 C 26.070312 171.953125 26.886719 171.132812 27.898438 171.132812 L 64.457031 171.132812 C 65.464844 171.132812 66.285156 171.953125 66.285156 172.960938 C 66.285156 173.96875 65.46875 174.789062 64.457031 174.789062 Z M 75.425781 174.789062 L 71.769531 174.789062 C 70.757812 174.789062 69.941406 173.96875 69.941406 172.960938 C 69.941406 171.953125 70.757812 171.132812 71.769531 171.132812 L 75.425781 171.132812 C 76.433594 171.132812 77.253906 171.953125 77.253906 172.960938 C 77.253906 173.96875 76.4375 174.789062 75.425781 174.789062 Z M 93.671875 182.097656 L 60.800781 182.097656 C 59.792969 182.097656 58.972656 181.28125 58.972656 180.269531 C 58.972656 179.261719 59.792969 178.445312 60.800781 178.445312 L 93.671875 178.445312 C 94.679688 178.445312 95.5 179.261719 95.5 180.269531 C 95.5 181.28125 94.679688 182.097656 93.671875 182.097656 Z M 53.488281 182.097656 L 49.832031 182.097656 C 48.824219 182.097656 48.003906 181.28125 48.003906 180.269531 C 48.003906 179.261719 48.824219 178.445312 49.832031 178.445312 L 53.488281 178.445312 C 54.496094 178.445312 55.316406 179.261719 55.316406 180.269531 C 55.316406 181.28125 54.5 182.097656 53.488281 182.097656 Z M 42.519531 182.097656 L 35.207031 182.097656 C 34.199219 182.097656 33.378906 181.28125 33.378906 180.269531 C 33.378906 179.261719 34.199219 178.445312 35.207031 178.445312 L 42.519531 178.445312 C 43.53125 178.445312 44.347656 179.261719 44.347656 180.269531 C 44.347656 181.28125 43.53125 182.097656 42.519531 182.097656 Z M 64.457031 189.410156 L 57.144531 189.410156 C 56.136719 189.410156 55.316406 188.589844 55.316406 187.582031 C 55.316406 186.574219 56.136719 185.753906 57.144531 185.753906 L 64.457031 185.753906 C 65.464844 185.753906 66.285156 186.574219 66.285156 187.582031 C 66.285156 188.589844 65.464844 189.410156 64.457031 189.410156 Z M 75.425781 156.515625 C 74.777344 156.515625 72.414062 156.515625 71.769531 156.515625 C 70.757812 156.515625 69.941406 157.332031 69.941406 158.339844 C 69.941406 159.351562 70.757812 160.167969 71.769531 160.167969 C 72.414062 160.167969 74.777344 160.167969 75.425781 160.167969 C 76.433594 160.167969 77.253906 159.351562 77.253906 158.339844 C 77.253906 157.332031 76.433594 156.515625 75.425781 156.515625 Z M 75.425781 163.824219 C 74.777344 163.824219 57.792969 163.824219 57.144531 163.824219 C 56.136719 163.824219 55.316406 164.644531 55.316406 165.652344 C 55.316406 166.660156 56.136719 167.480469 57.144531 167.480469 C 57.792969 167.480469 74.777344 167.480469 75.425781 167.480469 C 76.433594 167.480469 77.253906 166.660156 77.253906 165.652344 C 77.253906 164.644531 76.433594 163.824219 75.425781 163.824219 Z M 93.703125 171.132812 C 93.058594 171.132812 83.382812 171.132812 82.734375 171.132812 C 81.726562 171.132812 80.910156 171.953125 80.910156 172.960938 C 80.910156 173.96875 81.726562 174.789062 82.734375 174.789062 C 83.382812 174.789062 93.058594 174.789062 93.703125 174.789062 C 94.714844 174.789062 95.53125 173.96875 95.53125 172.960938 C 95.53125 171.953125 94.714844 171.132812 93.703125 171.132812 Z M 93.703125 171.132812 "/>
<g clip-path="url(#clip1)" clip-rule="nonzero">
<path style=" stroke:none;fill-rule:nonzero;fill:rgb(100%,100%,100%);fill-opacity:1;" d="M 302.09375 185.753906 L 265.535156 185.753906 C 264.527344 185.753906 263.707031 184.933594 263.707031 183.925781 C 263.707031 182.917969 264.527344 182.097656 265.535156 182.097656 L 302.09375 182.097656 C 303.105469 182.097656 303.921875 182.917969 303.921875 183.925781 C 303.921875 184.933594 303.105469 185.753906 302.09375 185.753906 Z M 316.71875 185.753906 L 309.40625 185.753906 C 308.398438 185.753906 307.578125 184.933594 307.578125 183.925781 C 307.578125 182.917969 308.398438 182.097656 309.40625 182.097656 L 316.71875 182.097656 C 317.726562 182.097656 318.546875 182.917969 318.546875 183.925781 C 318.546875 184.933594 317.726562 185.753906 316.71875 185.753906 Z M 335 193.0625 L 298.4375 193.0625 C 297.429688 193.0625 296.609375 192.246094 296.609375 191.238281 C 296.609375 190.226562 297.429688 189.410156 298.4375 189.410156 L 335 189.410156 C 336.007812 189.410156 336.828125 190.226562 336.828125 191.238281 C 336.828125 192.246094 336.011719 193.0625 335 193.0625 Z M 291.125 193.0625 L 287.472656 193.0625 C 286.460938 193.0625 285.644531 192.246094 285.644531 191.238281 C 285.644531 190.226562 286.460938 189.410156 287.472656 189.410156 L 291.125 189.410156 C 292.136719 189.410156 292.953125 190.226562 292.953125 191.238281 C 292.953125 192.246094 292.136719 193.0625 291.125 193.0625 Z M 280.050781 193.0625 L 272.847656 193.0625 C 271.835938 193.0625 271.019531 192.246094 271.019531 191.238281 C 271.019531 190.226562 271.835938 189.410156 272.847656 189.410156 L 280.050781 189.410156 C 281.058594 189.410156 281.878906 190.226562 281.878906 191.238281 C 281.878906 192.246094 281.058594 193.0625 280.050781 193.0625 Z M 313.0625 178.445312 L 294.78125 178.445312 C 293.773438 178.445312 292.953125 177.625 292.953125 176.617188 C 292.953125 175.609375 293.773438 174.789062 294.78125 174.789062 L 313.0625 174.789062 C 314.070312 174.789062 314.890625 175.609375 314.890625 176.617188 C 314.890625 177.625 314.074219 178.445312 313.0625 178.445312 Z M 302.09375 200.375 L 294.78125 200.375 C 293.773438 200.375 292.953125 199.554688 292.953125 198.546875 C 292.953125 197.539062 293.773438 196.71875 294.78125 196.71875 L 302.09375 196.71875 C 303.105469 196.71875 303.921875 197.539062 303.921875 198.546875 C 303.921875 199.554688 303.105469 200.375 302.09375 200.375 Z M 302.09375 200.375 "/>
</g>
<path style=" stroke:none;fill-rule:nonzero;fill:rgb(99.21875%,98.81897%,93.728638%);fill-opacity:1;" d="M 247.804688 142.957031 C 247.804688 142.957031 208.992188 142.957031 208.753906 142.957031 C 199.789062 142.957031 192.523438 135.695312 192.523438 126.734375 C 192.523438 118.914062 198.054688 112.390625 205.417969 110.855469 C 205.335938 110.171875 205.277344 109.476562 205.277344 108.773438 C 205.277344 99.492188 212.800781 91.96875 222.082031 91.96875 C 227.5625 91.96875 232.417969 94.601562 235.488281 98.660156 C 236.273438 88.332031 245.5 80.359375 256.300781 81.679688 C 264.195312 82.644531 270.730469 88.746094 272.179688 96.566406 C 272.644531 99.070312 272.597656 101.507812 272.132812 103.789062 C 274.25 101.511719 277.261719 100.078125 280.625 100.078125 C 286.765625 100.078125 291.78125 104.859375 292.175781 110.898438 C 294.964844 110.28125 298 110.324219 301.195312 111.519531 C 307.304688 113.8125 311.65625 119.5625 311.90625 126.078125 C 312.269531 135.335938 304.871094 142.953125 295.691406 142.953125 C 294.996094 142.953125 292.546875 142.953125 291.980469 142.953125 L 258.28125 142.953125 "/>
<path style=" stroke:none;fill-rule:nonzero;fill:rgb(27.839661%,16.859436%,16.079712%);fill-opacity:1;" d="M 208.753906 144.785156 L 247.804688 144.785156 C 248.8125 144.785156 249.632812 143.964844 249.632812 142.957031 C 249.632812 141.949219 248.8125 141.128906 247.804688 141.128906 L 208.753906 141.128906 C 200.8125 141.128906 194.355469 134.671875 194.355469 126.738281 C 194.355469 119.957031 199.164062 114.027344 205.796875 112.648438 C 206.730469 112.453125 207.355469 111.574219 207.238281 110.628906 C 207.160156 110.019531 207.109375 109.402344 207.109375 108.773438 C 207.109375 100.511719 213.828125 93.792969 222.089844 93.792969 C 226.816406 93.792969 231.164062 95.96875 234.039062 99.761719 C 234.496094 100.367188 235.289062 100.621094 236.007812 100.414062 C 236.742188 100.199219 237.257812 99.558594 237.316406 98.800781 C 237.65625 94.277344 239.875 90.03125 243.394531 87.140625 C 246.953125 84.226562 251.476562 82.933594 256.089844 83.5 C 263.203125 84.367188 269.089844 89.878906 270.394531 96.910156 C 270.800781 99.105469 270.785156 101.296875 270.351562 103.433594 C 270.1875 104.238281 270.578125 105.042969 271.308594 105.421875 C 272.027344 105.800781 272.921875 105.640625 273.484375 105.039062 C 275.359375 103.019531 277.894531 101.914062 280.628906 101.914062 C 285.75 101.914062 290.023438 105.917969 290.359375 111.023438 C 290.394531 111.558594 290.660156 112.046875 291.085938 112.367188 C 291.511719 112.6875 292.054688 112.796875 292.578125 112.691406 C 295.339844 112.078125 297.949219 112.261719 300.558594 113.234375 C 306.035156 115.292969 309.867188 120.488281 310.085938 126.15625 C 310.242188 130.117188 308.816406 133.863281 306.074219 136.714844 C 303.335938 139.5625 299.648438 141.132812 295.695312 141.132812 L 258.285156 141.132812 C 257.277344 141.132812 256.457031 141.953125 256.457031 142.960938 C 256.457031 143.96875 257.277344 144.789062 258.285156 144.789062 L 295.695312 144.789062 C 300.652344 144.789062 305.273438 142.824219 308.710938 139.246094 C 312.148438 135.675781 313.9375 130.976562 313.742188 126.011719 C 313.460938 118.894531 308.679688 112.382812 301.84375 109.8125 C 299.207031 108.824219 296.488281 108.492188 293.722656 108.792969 C 292.398438 102.75 286.988281 98.253906 280.625 98.253906 C 278.421875 98.253906 276.265625 98.804688 274.339844 99.832031 C 274.324219 98.636719 274.207031 97.4375 273.980469 96.238281 C 272.386719 87.660156 265.210938 80.933594 256.527344 79.867188 C 250.898438 79.175781 245.410156 80.757812 241.074219 84.316406 C 237.785156 87.011719 235.429688 90.679688 234.320312 94.734375 C 230.960938 91.78125 226.660156 90.144531 222.082031 90.144531 C 211.808594 90.144531 203.445312 98.503906 203.445312 108.777344 C 203.445312 109.011719 203.453125 109.242188 203.460938 109.476562 C 195.976562 111.773438 190.695312 118.789062 190.695312 126.742188 C 190.699219 136.6875 198.800781 144.785156 208.753906 144.785156 Z M 208.753906 144.785156 "/>
<path style=" stroke:none;fill-rule:nonzero;fill:rgb(99.21875%,98.81897%,93.728638%);fill-opacity:1;" d="M 257.210938 107.214844 C 263.214844 106.820312 268.378906 110.964844 268.753906 116.472656 C 268.800781 117.15625 268.765625 117.828125 268.667969 118.484375 C 269.828125 117.175781 271.542969 116.289062 273.507812 116.160156 C 277.109375 115.921875 280.222656 118.300781 280.671875 121.535156 C 281.324219 121.355469 282.007812 121.234375 282.71875 121.1875 C 287.972656 120.84375 292.492188 124.472656 292.816406 129.289062 "/>
<path style=" stroke:none;fill-rule:nonzero;fill:rgb(27.839661%,16.859436%,16.079712%);fill-opacity:1;" d="M 292.816406 130.207031 C 292.835938 130.207031 292.855469 130.207031 292.878906 130.203125 C 293.382812 130.167969 293.761719 129.734375 293.726562 129.230469 C 293.367188 123.914062 288.433594 119.867188 282.65625 120.277344 C 282.230469 120.304688 281.800781 120.359375 281.367188 120.4375 C 280.414062 117.230469 277.09375 114.941406 273.445312 115.25 C 272.070312 115.335938 270.78125 115.753906 269.667969 116.453125 C 269.667969 116.4375 269.667969 116.421875 269.664062 116.410156 C 269.261719 110.40625 263.65625 105.777344 257.148438 106.300781 C 256.644531 106.335938 256.261719 106.769531 256.300781 107.273438 C 256.328125 107.757812 256.730469 108.125 257.210938 108.125 C 257.230469 108.125 257.25 108.125 257.273438 108.121094 C 262.675781 107.808594 267.5 111.53125 267.84375 116.53125 C 267.886719 117.132812 267.859375 117.742188 267.769531 118.339844 C 267.707031 118.738281 267.914062 119.136719 268.285156 119.308594 C 268.648438 119.476562 269.089844 119.390625 269.355469 119.085938 C 270.414062 117.894531 271.914062 117.179688 273.574219 117.066406 C 276.699219 116.933594 279.382812 118.886719 279.769531 121.65625 C 279.808594 121.914062 279.953125 122.148438 280.167969 122.296875 C 280.386719 122.441406 280.652344 122.484375 280.910156 122.414062 C 281.535156 122.246094 282.164062 122.140625 282.78125 122.09375 C 287.554688 121.828125 291.621094 125.042969 291.910156 129.347656 C 291.933594 129.835938 292.335938 130.207031 292.816406 130.207031 Z M 292.816406 130.207031 "/>
<path style=" stroke:none;fill-rule:nonzero;fill:rgb(99.21875%,98.81897%,93.728638%);fill-opacity:1;" d="M 202.183594 112.753906 C 207.824219 110.09375 214.347656 111.972656 216.753906 116.957031 C 217.054688 117.574219 217.273438 118.214844 217.417969 118.859375 "/>
<path style=" stroke:none;fill-rule:nonzero;fill:rgb(27.839661%,16.859436%,16.079712%);fill-opacity:1;" d="M 217.421875 119.777344 C 217.488281 119.777344 217.554688 119.769531 217.625 119.753906 C 218.117188 119.644531 218.425781 119.15625 218.3125 118.664062 C 218.152344 117.949219 217.910156 117.242188 217.582031 116.566406 C 214.960938 111.140625 207.878906 109.058594 201.800781 111.925781 C 201.34375 112.144531 201.144531 112.6875 201.363281 113.144531 C 201.582031 113.605469 202.125 113.789062 202.578125 113.582031 C 207.761719 111.132812 213.75 112.832031 215.933594 117.351562 C 216.199219 117.902344 216.402344 118.484375 216.53125 119.0625 C 216.625 119.488281 217 119.777344 217.421875 119.777344 Z M 217.421875 119.777344 "/>
<path style=" stroke:none;fill-rule:nonzero;fill:rgb(47.059631%,80.389404%,83.139038%);fill-opacity:1;" d="M 179.621094 270.914062 C 146.609375 270.914062 120.027344 257.0625 120.027344 245.59375 L 120.027344 126.175781 L 239.210938 126.175781 L 239.210938 245.59375 C 239.210938 257.0625 212.628906 270.914062 179.621094 270.914062 Z M 179.621094 270.914062 "/>
<path style=" stroke:none;fill-rule:nonzero;fill:rgb(27.839661%,16.859436%,16.079712%);fill-opacity:1;" d="M 236.652344 128.734375 L 236.652344 245.59375 C 236.652344 254.761719 212.703125 268.355469 179.621094 268.355469 C 146.535156 268.355469 122.585938 254.761719 122.585938 245.59375 L 122.585938 128.734375 L 236.652344 128.734375 M 241.769531 123.617188 L 117.46875 123.617188 L 117.46875 245.59375 C 117.46875 259.070312 145.292969 273.472656 179.621094 273.472656 C 213.945312 273.472656 241.769531 259.070312 241.769531 245.59375 Z M 241.769531 123.617188 "/>
<path style=" stroke:none;fill-rule:nonzero;fill:rgb(47.059631%,80.389404%,83.139038%);fill-opacity:1;" d="M 179.621094 104.246094 C 177.667969 104.246094 175.722656 104.28125 173.777344 104.351562 C 171.835938 104.417969 169.90625 104.519531 167.992188 104.65625 C 166.078125 104.789062 164.1875 104.957031 162.320312 105.160156 C 160.453125 105.363281 158.617188 105.59375 156.816406 105.863281 C 155.011719 106.128906 153.25 106.421875 151.527344 106.75 C 149.804688 107.078125 148.132812 107.433594 146.511719 107.820312 C 144.890625 108.207031 143.324219 108.621094 141.816406 109.058594 C 140.304688 109.5 138.863281 109.964844 137.480469 110.457031 C 136.101562 110.949219 134.792969 111.460938 133.554688 112 C 132.316406 112.535156 131.15625 113.09375 130.070312 113.667969 C 128.984375 114.246094 127.984375 114.839844 127.0625 115.453125 C 126.144531 116.066406 125.308594 116.691406 124.5625 117.335938 C 123.816406 117.976562 123.160156 118.628906 122.59375 119.292969 C 122.027344 119.957031 121.554688 120.628906 121.171875 121.3125 C 120.792969 121.992188 120.503906 122.679688 120.3125 123.367188 C 120.121094 124.058594 120.027344 124.753906 120.027344 125.445312 C 120.027344 126.140625 120.121094 126.832031 120.3125 127.523438 C 120.503906 128.214844 120.792969 128.902344 121.171875 129.582031 C 121.554688 130.261719 122.027344 130.9375 122.59375 131.601562 C 123.160156 132.265625 123.816406 132.917969 124.5625 133.558594 C 125.308594 134.199219 126.144531 134.828125 127.0625 135.441406 C 127.984375 136.050781 128.984375 136.648438 130.070312 137.222656 C 131.15625 137.800781 132.316406 138.359375 133.554688 138.894531 C 134.792969 139.433594 136.101562 139.945312 137.480469 140.4375 C 138.863281 140.925781 140.304688 141.394531 141.816406 141.832031 C 143.324219 142.273438 144.890625 142.6875 146.511719 143.074219 C 148.132812 143.457031 149.804688 143.816406 151.527344 144.140625 C 153.25 144.46875 155.011719 144.765625 156.816406 145.03125 C 158.617188 145.296875 160.453125 145.53125 162.320312 145.734375 C 164.1875 145.933594 166.078125 146.101562 167.992188 146.238281 C 169.90625 146.375 171.835938 146.476562 173.777344 146.542969 C 175.722656 146.613281 177.667969 146.644531 179.621094 146.644531 C 181.570312 146.644531 183.519531 146.613281 185.460938 146.542969 C 187.402344 146.476562 189.332031 146.375 191.246094 146.238281 C 193.160156 146.101562 195.050781 145.933594 196.917969 145.734375 C 198.785156 145.53125 200.621094 145.296875 202.425781 145.03125 C 204.226562 144.765625 205.988281 144.46875 207.710938 144.140625 C 209.433594 143.816406 211.105469 143.457031 212.726562 143.074219 C 214.351562 142.6875 215.914062 142.273438 217.425781 141.832031 C 218.933594 141.394531 220.378906 140.925781 221.757812 140.4375 C 223.136719 139.945312 224.445312 139.433594 225.683594 138.894531 C 226.921875 138.359375 228.085938 137.800781 229.167969 137.222656 C 230.253906 136.648438 231.253906 136.050781 232.175781 135.441406 C 233.09375 134.828125 233.929688 134.199219 234.675781 133.558594 C 235.421875 132.917969 236.078125 132.265625 236.644531 131.601562 C 237.210938 130.9375 237.6875 130.261719 238.066406 129.582031 C 238.449219 128.902344 238.734375 128.214844 238.925781 127.523438 C 239.117188 126.832031 239.210938 126.140625 239.210938 125.445312 C 239.210938 124.753906 239.117188 124.058594 238.925781 123.367188 C 238.734375 122.679688 238.449219 121.992188 238.066406 121.3125 C 237.6875 120.628906 237.210938 119.957031 236.644531 119.292969 C 236.078125 118.628906 235.421875 117.976562 234.675781 117.335938 C 233.929688 116.691406 233.09375 116.066406 232.175781 115.453125 C 231.253906 114.839844 230.253906 114.246094 229.167969 113.667969 C 228.085938 113.09375 226.921875 112.535156 225.683594 112 C 224.445312 111.460938 223.136719 110.949219 221.757812 110.457031 C 220.378906 109.964844 218.933594 109.5 217.425781 109.058594 C 215.914062 108.621094 214.351562 108.207031 212.726562 107.820312 C 211.105469 107.433594 209.433594 107.078125 207.710938 106.75 C 205.988281 106.421875 204.226562 106.128906 202.425781 105.863281 C 200.621094 105.59375 198.785156 105.363281 196.917969 105.160156 C 195.050781 104.957031 193.160156 104.789062 191.246094 104.65625 C 189.332031 104.519531 187.402344 104.417969 185.460938 104.351562 C 183.519531 104.28125 181.570312 104.246094 179.621094 104.246094 Z M 179.621094 104.246094 "/>
<path style=" stroke:none;fill-rule:nonzero;fill:rgb(27.839661%,16.859436%,16.079712%);fill-opacity:1;" d="M 179.621094 106.804688 C 214.433594 106.804688 236.652344 117.847656 236.652344 125.445312 C 236.652344 133.046875 214.433594 144.085938 179.621094 144.085938 C 144.804688 144.085938 122.585938 133.046875 122.585938 125.445312 C 122.585938 117.847656 144.804688 106.804688 179.621094 106.804688 M 179.621094 101.6875 C 145.292969 101.6875 117.46875 112.324219 117.46875 125.445312 C 117.46875 138.566406 145.292969 149.203125 179.621094 149.203125 C 213.945312 149.203125 241.769531 138.566406 241.769531 125.445312 C 241.769531 112.324219 213.945312 101.6875 179.621094 101.6875 Z M 179.621094 101.6875 "/>
<path style=" stroke:none;fill-rule:nonzero;fill:rgb(27.839661%,16.859436%,16.079712%);fill-opacity:1;" d="M 139.507812 184.15625 C 139.277344 184.15625 139.039062 184.113281 138.8125 184.019531 C 126.226562 178.839844 119.296875 171.667969 119.296875 163.824219 C 119.296875 162.816406 120.113281 161.996094 121.125 161.996094 C 122.132812 161.996094 122.953125 162.816406 122.953125 163.824219 C 122.953125 169.996094 129.238281 176.125 140.199219 180.640625 C 141.132812 181.019531 141.578125 182.089844 141.195312 183.023438 C 140.90625 183.730469 140.222656 184.15625 139.507812 184.15625 Z M 161.335938 189.871094 C 161.25 189.871094 161.160156 189.863281 161.070312 189.851562 C 155.679688 189.0625 150.566406 187.941406 145.871094 186.519531 C 144.90625 186.226562 144.359375 185.207031 144.652344 184.242188 C 144.945312 183.273438 145.957031 182.71875 146.933594 183.019531 C 151.457031 184.390625 156.394531 185.472656 161.601562 186.234375 C 162.601562 186.378906 163.292969 187.308594 163.144531 188.304688 C 163.011719 189.214844 162.226562 189.871094 161.335938 189.871094 Z M 180.535156 191.238281 C 177.230469 191.238281 173.910156 191.121094 170.664062 190.890625 C 169.65625 190.816406 168.898438 189.941406 168.96875 188.9375 C 169.039062 187.929688 169.886719 187.152344 170.921875 187.242188 C 174.082031 187.46875 177.316406 187.582031 180.53125 187.582031 C 211.746094 187.582031 238.113281 176.699219 238.113281 163.824219 C 238.113281 162.816406 238.933594 161.996094 239.941406 161.996094 C 240.953125 161.996094 241.769531 162.816406 241.769531 163.824219 C 241.769531 179.195312 214.875 191.238281 180.535156 191.238281 Z M 180.535156 191.238281 "/>
<path style=" stroke:none;fill-rule:nonzero;fill:rgb(27.839661%,16.859436%,16.079712%);fill-opacity:1;" d="M 134.59375 225.730469 C 134.308594 225.730469 134.015625 225.664062 133.746094 225.519531 C 124.292969 220.5625 119.296875 214.398438 119.296875 207.683594 C 119.296875 206.675781 120.113281 205.855469 121.125 205.855469 C 122.132812 205.855469 122.953125 206.675781 122.953125 207.683594 C 122.953125 212.878906 127.386719 218.0625 135.445312 222.289062 C 136.339844 222.757812 136.683594 223.863281 136.210938 224.757812 C 135.886719 225.378906 135.25 225.730469 134.59375 225.730469 Z M 180.535156 235.097656 C 168.441406 235.097656 156.765625 233.558594 146.777344 230.644531 C 145.808594 230.359375 145.253906 229.347656 145.535156 228.378906 C 145.816406 227.40625 146.816406 226.855469 147.800781 227.132812 C 157.464844 229.949219 168.78125 231.441406 180.535156 231.441406 C 211.746094 231.441406 238.113281 220.558594 238.113281 207.683594 C 238.113281 206.675781 238.933594 205.855469 239.941406 205.855469 C 240.953125 205.855469 241.769531 206.675781 241.769531 207.683594 C 241.769531 223.058594 214.875 235.097656 180.535156 235.097656 Z M 180.535156 235.097656 "/>
<path style=" stroke:none;fill-rule:nonzero;fill:rgb(68.629456%,67.059326%,83.139038%);fill-opacity:1;" d="M 218.121094 284.867188 C 215.273438 284.054688 212.523438 282.9375 209.902344 281.523438 C 211.363281 276.558594 210.207031 272.078125 206.492188 268.460938 C 203.9375 265.980469 200.980469 264.726562 197.707031 264.726562 C 196.363281 264.726562 194.972656 264.945312 193.546875 265.378906 C 192.101562 262.785156 190.949219 260.066406 190.109375 257.253906 C 194.789062 254.742188 197.179688 250.6875 197.054688 245.410156 C 196.933594 240.355469 194.488281 236.507812 189.949219 234.171875 C 190.75 231.339844 191.859375 228.605469 193.261719 226.007812 C 194.738281 226.472656 196.179688 226.707031 197.578125 226.707031 C 200.949219 226.707031 203.96875 225.375 206.558594 222.742188 C 210.210938 219.027344 211.242188 214.492188 209.605469 209.519531 C 212.152344 208.109375 214.875 206.972656 217.742188 206.117188 C 220.164062 210.816406 224.105469 213.285156 229.253906 213.285156 C 229.652344 213.285156 230.058594 213.265625 230.472656 213.234375 C 235.261719 212.882812 238.867188 210.417969 241.03125 206.0625 C 243.851562 206.878906 246.582031 208 249.183594 209.421875 C 247.5625 214.476562 248.648438 219.039062 252.386719 222.730469 C 254.960938 225.273438 257.945312 226.566406 261.25 226.566406 C 262.671875 226.566406 264.140625 226.316406 265.636719 225.832031 C 266.765625 227.925781 268.28125 231.535156 268.988281 233.96875 C 264.246094 236.464844 261.8125 240.53125 261.917969 245.84375 C 262.023438 250.835938 264.429688 254.675781 268.90625 257.054688 C 268.074219 259.878906 266.9375 262.609375 265.503906 265.207031 C 264.078125 264.792969 262.699219 264.585938 261.375 264.585938 C 257.640625 264.585938 254.390625 266.171875 251.703125 269.296875 C 248.722656 272.769531 247.878906 276.925781 249.230469 281.421875 C 246.621094 282.851562 243.875 283.984375 241.03125 284.816406 C 238.6875 280.488281 234.472656 277.949219 229.472656 277.949219 C 224.652344 278.007812 220.425781 280.667969 218.121094 284.867188 Z M 229.453125 235.4375 C 223.9375 235.4375 219.433594 239.90625 219.40625 245.398438 C 219.398438 248.074219 220.429688 250.601562 222.320312 252.5 C 224.210938 254.402344 226.726562 255.453125 229.410156 255.464844 C 234.898438 255.4375 239.300781 251.167969 239.457031 245.742188 C 239.535156 243.03125 238.542969 240.457031 236.660156 238.507812 C 234.78125 236.554688 232.257812 235.464844 229.554688 235.441406 C 229.546875 235.4375 229.464844 235.4375 229.453125 235.4375 Z M 229.453125 235.4375 "/>
<path style=" stroke:none;fill-rule:nonzero;fill:rgb(27.839661%,16.859436%,16.079712%);fill-opacity:1;" d="M 242.210938 209.121094 C 243.566406 209.589844 244.898438 210.140625 246.195312 210.769531 C 245.199219 215.925781 246.691406 220.707031 250.585938 224.550781 C 253.613281 227.542969 257.296875 229.121094 261.242188 229.121094 C 262.238281 229.121094 263.246094 229.023438 264.265625 228.820312 C 264.839844 230.074219 265.4375 231.53125 265.910156 232.832031 C 261.539062 235.84375 259.238281 240.355469 259.355469 245.890625 C 259.464844 251.070312 261.738281 255.3125 265.847656 258.175781 C 265.363281 259.566406 264.792969 260.929688 264.140625 262.265625 C 263.203125 262.101562 262.277344 262.023438 261.367188 262.023438 C 256.921875 262.023438 252.90625 263.960938 249.757812 267.625 C 246.683594 271.203125 245.507812 275.507812 246.285156 280.058594 C 244.933594 280.714844 243.542969 281.289062 242.125 281.78125 C 239.195312 277.761719 234.617188 275.390625 229.457031 275.390625 C 229.4375 275.390625 229.265625 275.390625 229.242188 275.390625 C 224.351562 275.449219 219.878906 277.890625 217 281.847656 C 215.578125 281.363281 214.195312 280.800781 212.835938 280.152344 C 213.691406 275.078125 212.140625 270.390625 208.269531 266.632812 C 205.265625 263.710938 201.609375 262.164062 197.699219 262.164062 C 196.769531 262.164062 195.828125 262.25 194.871094 262.425781 C 194.21875 261.101562 193.644531 259.757812 193.152344 258.371094 C 197.476562 255.351562 199.734375 250.851562 199.605469 245.347656 C 199.480469 240.097656 197.167969 235.839844 192.980469 233.003906 C 193.449219 231.636719 193.996094 230.289062 194.617188 228.980469 C 195.613281 229.167969 196.597656 229.261719 197.570312 229.261719 C 201.59375 229.261719 205.332031 227.625 208.378906 224.535156 C 212.175781 220.671875 213.609375 215.925781 212.59375 210.84375 C 213.882812 210.21875 215.214844 209.664062 216.582031 209.179688 C 219.507812 213.507812 223.875 215.839844 229.25 215.839844 C 229.707031 215.839844 230.179688 215.820312 230.65625 215.785156 C 235.589844 215.421875 239.566406 213.097656 242.210938 209.121094 M 229.425781 258.019531 C 229.433594 258.019531 229.441406 258.019531 229.449219 258.019531 C 236.300781 257.984375 241.820312 252.621094 242.015625 245.816406 C 242.113281 242.410156 240.867188 239.183594 238.507812 236.730469 C 236.148438 234.28125 232.976562 232.914062 229.449219 232.882812 C 222.535156 232.882812 216.882812 238.492188 216.847656 245.386719 C 216.816406 252.320312 222.445312 257.992188 229.398438 258.023438 C 229.40625 258.019531 229.417969 258.019531 229.425781 258.019531 M 239.527344 203.027344 C 237.980469 207.519531 234.980469 210.335938 230.285156 210.683594 C 229.933594 210.710938 229.589844 210.726562 229.253906 210.726562 C 224.265625 210.726562 220.984375 207.890625 219.195312 203.074219 C 214.625 204.191406 210.367188 205.957031 206.414062 208.429688 C 208.589844 213.019531 208.308594 217.3125 204.730469 220.945312 C 202.570312 223.140625 200.160156 224.144531 197.574219 224.144531 C 195.832031 224.144531 194.007812 223.6875 192.132812 222.828125 C 189.710938 226.808594 187.972656 231.070312 186.929688 235.640625 C 191.574219 237.34375 194.375 240.527344 194.492188 245.472656 C 194.613281 250.613281 191.839844 253.976562 187.066406 255.832031 C 188.167969 260.359375 189.957031 264.574219 192.429688 268.519531 C 194.242188 267.714844 196.003906 267.285156 197.699219 267.285156 C 200.21875 267.285156 202.574219 268.234375 204.699219 270.300781 C 208.324219 273.820312 208.757812 278.070312 206.757812 282.667969 C 210.742188 285.09375 214.988281 286.824219 219.523438 287.875 C 219.59375 287.738281 219.644531 287.660156 219.679688 287.570312 C 221.320312 283.296875 225.046875 280.5625 229.308594 280.503906 C 229.359375 280.503906 229.40625 280.503906 229.457031 280.503906 C 233.949219 280.503906 237.660156 283.039062 239.386719 287.332031 C 239.515625 287.652344 239.652344 287.75 239.855469 287.75 C 239.953125 287.75 240.066406 287.726562 240.199219 287.691406 C 244.304688 286.652344 248.179688 285.050781 251.816406 282.886719 C 252.015625 282.769531 252.207031 282.632812 252.363281 282.527344 C 250.511719 278.355469 250.679688 274.402344 253.636719 270.957031 C 255.882812 268.34375 258.492188 267.140625 261.363281 267.140625 C 263.039062 267.140625 264.800781 267.550781 266.628906 268.328125 C 269.082031 264.367188 270.847656 260.140625 271.921875 255.617188 C 267.34375 253.867188 264.570312 250.730469 264.46875 245.785156 C 264.359375 240.570312 267.179688 237.265625 271.90625 235.4375 C 271.617188 232.589844 268.300781 224.585938 266.625 222.675781 C 264.777344 223.539062 262.972656 224 261.234375 224 C 258.707031 224 256.316406 223.023438 254.175781 220.90625 C 250.5 217.277344 250.210938 212.941406 252.347656 208.308594 C 248.371094 205.855469 244.097656 204.085938 239.527344 203.027344 Z M 229.421875 252.902344 C 225.28125 252.886719 221.945312 249.53125 221.964844 245.40625 C 221.984375 241.296875 225.316406 238 229.449219 238 C 229.476562 238 229.5 238 229.527344 238 C 233.695312 238.039062 237.019531 241.492188 236.898438 245.671875 C 236.789062 249.554688 233.625 252.882812 229.421875 252.902344 Z M 229.421875 252.902344 "/>
<path style=" stroke:none;fill-rule:nonzero;fill:rgb(46.669006%,46.669006%,67.059326%);fill-opacity:1;" d="M 255.59375 238.792969 C 251.917969 224.347656 237.21875 215.617188 222.769531 219.296875 C 208.324219 222.972656 199.59375 237.664062 203.269531 252.109375 C 206.949219 266.554688 221.644531 275.28125 236.09375 271.605469 C 250.542969 267.929688 259.277344 253.234375 255.59375 238.792969 Z M 234.75 266.335938 C 223.214844 269.269531 211.476562 262.300781 208.542969 250.765625 C 205.605469 239.230469 212.578125 227.496094 224.117188 224.5625 C 235.65625 221.628906 247.390625 228.597656 250.324219 240.132812 C 253.261719 251.667969 246.289062 263.402344 234.75 266.335938 Z M 234.75 266.335938 "/>
<path style=" stroke:none;fill-rule:nonzero;fill:rgb(27.839661%,16.859436%,16.079712%);fill-opacity:1;" d="M 207.578125 246.359375 C 207.070312 246.359375 206.664062 245.953125 206.664062 245.445312 C 206.664062 232.894531 216.878906 222.683594 229.433594 222.683594 C 232.804688 222.683594 236.058594 223.40625 239.105469 224.832031 C 239.5625 225.046875 239.761719 225.59375 239.542969 226.050781 C 239.328125 226.515625 238.777344 226.695312 238.328125 226.488281 C 235.53125 225.175781 232.539062 224.511719 229.433594 224.511719 C 217.886719 224.511719 208.492188 233.902344 208.492188 245.445312 C 208.492188 245.953125 208.082031 246.359375 207.578125 246.359375 Z M 229.433594 268.214844 C 219.429688 268.214844 210.695312 261.808594 207.707031 252.273438 C 207.554688 251.792969 207.824219 251.28125 208.304688 251.128906 C 208.8125 250.980469 209.296875 251.25 209.449219 251.726562 C 212.199219 260.496094 220.230469 266.390625 229.433594 266.390625 C 234.160156 266.390625 238.625 264.851562 242.335938 261.941406 C 242.734375 261.628906 243.308594 261.699219 243.621094 262.09375 C 243.933594 262.492188 243.863281 263.066406 243.46875 263.382812 C 239.425781 266.539062 234.574219 268.214844 229.433594 268.214844 Z M 246.511719 259.996094 C 246.3125 259.996094 246.109375 259.933594 245.941406 259.796875 C 245.550781 259.480469 245.484375 258.910156 245.800781 258.511719 C 248.789062 254.769531 250.375 250.25 250.375 245.445312 C 250.375 242.8125 249.890625 240.246094 248.941406 237.824219 C 248.753906 237.355469 248.988281 236.824219 249.460938 236.640625 C 249.917969 236.453125 250.460938 236.691406 250.640625 237.160156 C 251.675781 239.796875 252.203125 242.585938 252.203125 245.449219 C 252.203125 250.675781 250.480469 255.585938 247.230469 259.65625 C 247.042969 259.878906 246.78125 259.996094 246.511719 259.996094 Z M 246.511719 259.996094 "/>
<path style=" stroke:none;fill-rule:nonzero;fill:rgb(27.839661%,16.859436%,16.079712%);fill-opacity:1;" d="M 247.4375 233.972656 C 247.148438 233.972656 246.863281 233.835938 246.683594 233.578125 C 245.542969 231.929688 244.183594 230.457031 242.644531 229.207031 C 242.253906 228.890625 242.191406 228.3125 242.507812 227.921875 C 242.832031 227.523438 243.410156 227.472656 243.796875 227.785156 C 245.476562 229.148438 246.957031 230.753906 248.195312 232.546875 C 248.480469 232.957031 248.378906 233.527344 247.960938 233.816406 C 247.796875 233.921875 247.617188 233.972656 247.4375 233.972656 Z M 247.4375 233.972656 "/>
<path style=" stroke:none;fill-rule:nonzero;fill:rgb(99.21875%,98.81897%,93.728638%);fill-opacity:1;" d="M 128.898438 238.132812 C 135.148438 238.132812 140.574219 238.132812 140.652344 238.132812 C 147.65625 238.132812 153.332031 232.578125 153.332031 225.722656 C 153.332031 219.742188 149.011719 214.753906 143.257812 213.574219 C 143.324219 213.054688 143.371094 212.523438 143.371094 211.980469 C 143.371094 204.882812 137.488281 199.128906 130.234375 199.128906 C 125.949219 199.128906 122.160156 201.140625 119.761719 204.25 C 119.144531 196.347656 111.933594 190.25 103.492188 191.257812 C 97.320312 191.996094 92.214844 196.664062 91.078125 202.648438 C 90.714844 204.566406 90.753906 206.425781 91.117188 208.171875 C 89.460938 206.429688 87.105469 205.332031 84.484375 205.332031 C 79.683594 205.332031 75.765625 208.992188 75.453125 213.613281 C 73.273438 213.140625 70.902344 213.171875 68.40625 214.085938 C 63.628906 215.839844 60.230469 220.238281 60.03125 225.222656 C 59.75 232.304688 65.53125 238.132812 72.707031 238.132812 C 73.253906 238.132812 75.167969 238.132812 75.609375 238.132812 L 101.949219 238.132812 M 107.394531 238.132812 L 108.589844 238.132812 "/>
<path style=" stroke:none;fill-rule:nonzero;fill:rgb(27.839661%,16.859436%,16.079712%);fill-opacity:1;" d="M 140.652344 239.960938 L 128.898438 239.960938 C 127.886719 239.960938 127.070312 239.140625 127.070312 238.132812 C 127.070312 237.125 127.886719 236.304688 128.898438 236.304688 L 140.652344 236.304688 C 146.636719 236.304688 151.503906 231.558594 151.503906 225.722656 C 151.503906 220.742188 147.882812 216.386719 142.894531 215.371094 C 141.960938 215.175781 141.328125 214.304688 141.449219 213.355469 C 141.503906 212.902344 141.542969 212.445312 141.542969 211.980469 C 141.542969 205.902344 136.46875 200.953125 130.234375 200.953125 C 126.660156 200.953125 123.367188 202.558594 121.203125 205.363281 C 120.742188 205.960938 119.953125 206.207031 119.238281 206 C 118.511719 205.78125 117.996094 205.144531 117.941406 204.390625 C 117.679688 201.054688 116.085938 198.027344 113.449219 195.867188 C 110.734375 193.636719 107.277344 192.65625 103.707031 193.070312 C 98.3125 193.71875 93.863281 197.792969 92.875 202.984375 C 92.566406 204.609375 92.574219 206.234375 92.902344 207.796875 C 93.070312 208.601562 92.683594 209.410156 91.964844 209.792969 C 91.234375 210.167969 90.351562 210.023438 89.789062 209.425781 C 88.394531 207.964844 86.511719 207.15625 84.480469 207.15625 C 80.6875 207.15625 77.523438 210.046875 77.273438 213.734375 C 77.238281 214.265625 76.972656 214.753906 76.550781 215.070312 C 76.121094 215.390625 75.585938 215.507812 75.0625 215.394531 C 72.976562 214.941406 71.003906 215.078125 69.039062 215.800781 C 64.90625 217.316406 62.023438 221.128906 61.859375 225.292969 C 61.742188 228.152344 62.78125 230.871094 64.777344 232.953125 C 66.855469 235.113281 69.667969 236.300781 72.703125 236.300781 L 101.945312 236.300781 C 102.953125 236.300781 103.773438 237.121094 103.773438 238.128906 C 103.773438 239.140625 102.953125 239.957031 101.945312 239.957031 L 72.703125 239.957031 C 68.722656 239.957031 64.875 238.328125 62.140625 235.484375 C 59.449219 232.675781 58.050781 229.011719 58.203125 225.148438 C 58.425781 219.527344 62.269531 214.390625 67.773438 212.371094 C 69.78125 211.636719 71.839844 211.355469 73.945312 211.535156 C 75.15625 206.898438 79.453125 203.503906 84.480469 203.503906 C 86.054688 203.503906 87.601562 203.847656 89.015625 204.484375 C 89.054688 203.761719 89.140625 203.035156 89.28125 202.304688 C 90.558594 195.5625 96.316406 190.273438 103.269531 189.441406 C 107.851562 188.878906 112.273438 190.171875 115.765625 193.035156 C 118.207031 195.039062 119.957031 197.621094 120.878906 200.519531 C 123.503906 198.445312 126.765625 197.296875 130.230469 197.296875 C 138.484375 197.296875 145.195312 203.882812 145.195312 211.976562 C 145.195312 212.050781 145.195312 212.125 145.191406 212.199219 C 151.054688 214.09375 155.160156 219.546875 155.160156 225.71875 C 155.160156 233.574219 148.652344 239.960938 140.652344 239.960938 Z M 108.585938 239.960938 L 107.394531 239.960938 C 106.386719 239.960938 105.566406 239.140625 105.566406 238.132812 C 105.566406 237.125 106.386719 236.304688 107.394531 236.304688 L 108.585938 236.304688 C 109.597656 236.304688 110.414062 237.125 110.414062 238.132812 C 110.414062 239.140625 109.597656 239.960938 108.585938 239.960938 Z M 108.585938 239.960938 "/>
<path style=" stroke:none;fill-rule:nonzero;fill:rgb(27.839661%,16.859436%,16.079712%);fill-opacity:1;" d="M 134.984375 220.617188 C 134.917969 220.617188 134.851562 220.613281 134.78125 220.597656 C 134.289062 220.488281 133.976562 219.996094 134.089844 219.503906 C 134.214844 218.949219 134.410156 218.40625 134.660156 217.894531 C 136.695312 213.792969 142.292969 212.277344 147.125 214.519531 C 147.585938 214.730469 147.785156 215.273438 147.570312 215.726562 C 147.359375 216.183594 146.8125 216.386719 146.359375 216.175781 C 142.398438 214.34375 137.894531 215.484375 136.296875 218.703125 C 136.109375 219.082031 135.96875 219.488281 135.875 219.902344 C 135.777344 220.332031 135.402344 220.617188 134.984375 220.617188 Z M 134.984375 220.617188 "/>
<path style=" stroke:none;fill-rule:nonzero;fill:rgb(27.839661%,16.859436%,16.079712%);fill-opacity:1;" d="M 117.855469 239.960938 L 114.179688 239.960938 C 113.171875 239.960938 112.351562 239.140625 112.351562 238.132812 C 112.351562 237.125 113.171875 236.304688 114.179688 236.304688 L 117.855469 236.304688 C 118.863281 236.304688 119.683594 237.125 119.683594 238.132812 C 119.683594 239.140625 118.863281 239.960938 117.855469 239.960938 Z M 117.855469 239.960938 "/>
</g>
</svg>
