<?xml version="1.0" encoding="UTF-8"?>
<svg xmlns="http://www.w3.org/2000/svg" xmlns:xlink="http://www.w3.org/1999/xlink" width="375pt" height="374.999991pt" viewBox="0 0 375 374.999991" version="1.2">
<defs>
<clipPath id="clip1">
  <path d="M 52 52.121094 L 301 52.121094 L 301 300.371094 L 52 300.371094 Z M 52 52.121094 "/>
</clipPath>
<clipPath id="clip2">
  <path d="M 35.878906 62 L 338.644531 62 L 338.644531 290 L 35.878906 290 Z M 35.878906 62 "/>
</clipPath>
</defs>
<g id="surface1">
<g clip-path="url(#clip1)" clip-rule="nonzero">
<path style=" stroke:none;fill-rule:nonzero;fill:rgb(4.309082%,23.919678%,56.858826%);fill-opacity:1;" d="M 300.171875 176.089844 C 300.171875 178.121094 300.125 180.152344 300.023438 182.179688 C 299.925781 184.210938 299.773438 186.234375 299.578125 188.257812 C 299.378906 190.277344 299.128906 192.292969 298.832031 194.304688 C 298.535156 196.3125 298.191406 198.3125 297.792969 200.304688 C 297.398438 202.296875 296.957031 204.277344 296.464844 206.25 C 295.972656 208.21875 295.429688 210.175781 294.84375 212.121094 C 294.253906 214.066406 293.621094 215.992188 292.9375 217.90625 C 292.253906 219.820312 291.527344 221.714844 290.75 223.589844 C 289.976562 225.464844 289.15625 227.324219 288.289062 229.160156 C 287.421875 230.996094 286.511719 232.808594 285.558594 234.601562 C 284.601562 236.394531 283.605469 238.160156 282.5625 239.902344 C 281.519531 241.644531 280.4375 243.359375 279.3125 245.050781 C 278.1875 246.738281 277.019531 248.398438 275.8125 250.03125 C 274.609375 251.660156 273.363281 253.261719 272.078125 254.832031 C 270.792969 256.402344 269.46875 257.941406 268.109375 259.445312 C 266.746094 260.949219 265.351562 262.421875 263.917969 263.859375 C 262.488281 265.292969 261.019531 266.695312 259.519531 268.058594 C 258.019531 269.421875 256.484375 270.75 254.917969 272.039062 C 253.351562 273.328125 251.757812 274.574219 250.128906 275.785156 C 248.503906 276.996094 246.847656 278.164062 245.160156 279.292969 C 243.476562 280.421875 241.765625 281.507812 240.03125 282.554688 C 238.292969 283.597656 236.53125 284.597656 234.742188 285.554688 C 232.957031 286.515625 231.148438 287.425781 229.316406 288.296875 C 227.484375 289.164062 225.632812 289.988281 223.761719 290.765625 C 221.890625 291.542969 220 292.273438 218.09375 292.957031 C 216.1875 293.640625 214.265625 294.277344 212.324219 294.867188 C 210.386719 295.457031 208.433594 296 206.46875 296.492188 C 204.503906 296.984375 202.53125 297.429688 200.542969 297.828125 C 198.554688 298.222656 196.558594 298.570312 194.558594 298.867188 C 192.554688 299.167969 190.542969 299.414062 188.527344 299.613281 C 186.511719 299.8125 184.492188 299.964844 182.46875 300.0625 C 180.445312 300.164062 178.421875 300.210938 176.394531 300.210938 C 174.367188 300.210938 172.34375 300.164062 170.320312 300.0625 C 168.296875 299.964844 166.277344 299.8125 164.261719 299.613281 C 162.246094 299.414062 160.238281 299.167969 158.234375 298.867188 C 156.230469 298.570312 154.234375 298.222656 152.246094 297.828125 C 150.261719 297.429688 148.285156 296.984375 146.320312 296.492188 C 144.355469 296 142.402344 295.457031 140.464844 294.867188 C 138.523438 294.277344 136.601562 293.640625 134.695312 292.957031 C 132.789062 292.273438 130.898438 291.542969 129.027344 290.765625 C 127.15625 289.988281 125.304688 289.164062 123.472656 288.296875 C 121.640625 287.425781 119.832031 286.515625 118.046875 285.554688 C 116.257812 284.597656 114.496094 283.597656 112.761719 282.554688 C 111.023438 281.507812 109.3125 280.421875 107.628906 279.292969 C 105.941406 278.164062 104.285156 276.996094 102.660156 275.785156 C 101.03125 274.574219 99.4375 273.328125 97.871094 272.039062 C 96.304688 270.75 94.769531 269.421875 93.269531 268.058594 C 91.769531 266.695312 90.300781 265.292969 88.871094 263.859375 C 87.4375 262.421875 86.042969 260.949219 84.679688 259.445312 C 83.320312 257.941406 81.996094 256.402344 80.710938 254.832031 C 79.425781 253.261719 78.183594 251.660156 76.976562 250.03125 C 75.769531 248.398438 74.601562 246.738281 73.476562 245.050781 C 72.351562 243.359375 71.269531 241.644531 70.226562 239.902344 C 69.183594 238.160156 68.1875 236.394531 67.230469 234.601562 C 66.277344 232.808594 65.367188 230.996094 64.5 229.160156 C 63.632812 227.324219 62.8125 225.464844 62.039062 223.589844 C 61.261719 221.714844 60.535156 219.820312 59.851562 217.90625 C 59.167969 215.992188 58.535156 214.066406 57.945312 212.121094 C 57.359375 210.175781 56.816406 208.21875 56.324219 206.25 C 55.832031 204.277344 55.390625 202.296875 54.996094 200.304688 C 54.597656 198.3125 54.253906 196.3125 53.957031 194.304688 C 53.660156 192.292969 53.410156 190.277344 53.210938 188.257812 C 53.015625 186.234375 52.863281 184.210938 52.765625 182.179688 C 52.667969 180.152344 52.617188 178.121094 52.617188 176.089844 C 52.617188 174.058594 52.667969 172.027344 52.765625 170 C 52.863281 167.972656 53.015625 165.945312 53.210938 163.925781 C 53.410156 161.902344 53.660156 159.886719 53.957031 157.878906 C 54.253906 155.867188 54.597656 153.867188 54.996094 151.875 C 55.390625 149.882812 55.832031 147.902344 56.324219 145.929688 C 56.816406 143.960938 57.359375 142.003906 57.945312 140.058594 C 58.535156 138.117188 59.167969 136.1875 59.851562 134.273438 C 60.535156 132.363281 61.261719 130.46875 62.039062 128.589844 C 62.8125 126.714844 63.632812 124.859375 64.5 123.019531 C 65.367188 121.183594 66.277344 119.371094 67.230469 117.578125 C 68.1875 115.789062 69.183594 114.019531 70.226562 112.277344 C 71.269531 110.535156 72.351562 108.820312 73.476562 107.132812 C 74.601562 105.441406 75.769531 103.78125 76.976562 102.152344 C 78.183594 100.519531 79.425781 98.917969 80.710938 97.347656 C 81.996094 95.777344 83.320312 94.242188 84.679688 92.734375 C 86.042969 91.230469 87.4375 89.757812 88.871094 88.324219 C 90.300781 86.886719 91.769531 85.484375 93.269531 84.121094 C 94.769531 82.757812 96.304688 81.429688 97.871094 80.144531 C 99.4375 78.855469 101.03125 77.605469 102.660156 76.394531 C 104.285156 75.183594 105.941406 74.015625 107.628906 72.886719 C 109.3125 71.757812 111.023438 70.671875 112.761719 69.628906 C 114.496094 68.582031 116.257812 67.582031 118.046875 66.625 C 119.832031 65.667969 121.640625 64.753906 123.472656 63.886719 C 125.304688 63.015625 127.15625 62.195312 129.027344 61.417969 C 130.898438 60.640625 132.789062 59.910156 134.695312 59.222656 C 136.601562 58.539062 138.523438 57.902344 140.464844 57.3125 C 142.402344 56.722656 144.355469 56.183594 146.320312 55.6875 C 148.285156 55.195312 150.261719 54.75 152.246094 54.351562 C 154.234375 53.957031 156.230469 53.609375 158.234375 53.3125 C 160.238281 53.015625 162.246094 52.765625 164.261719 52.566406 C 166.277344 52.367188 168.296875 52.21875 170.320312 52.117188 C 172.34375 52.019531 174.367188 51.96875 176.394531 51.96875 C 178.421875 51.96875 180.445312 52.019531 182.46875 52.117188 C 184.492188 52.21875 186.511719 52.367188 188.527344 52.566406 C 190.542969 52.765625 192.554688 53.015625 194.558594 53.3125 C 196.558594 53.609375 198.554688 53.957031 200.542969 54.351562 C 202.53125 54.75 204.503906 55.195312 206.46875 55.6875 C 208.433594 56.183594 210.386719 56.722656 212.324219 57.3125 C 214.265625 57.902344 216.1875 58.539062 218.09375 59.222656 C 220 59.910156 221.890625 60.640625 223.761719 61.417969 C 225.632812 62.195312 227.484375 63.015625 229.316406 63.886719 C 231.148438 64.753906 232.957031 65.667969 234.742188 66.625 C 236.53125 67.582031 238.292969 68.582031 240.03125 69.628906 C 241.765625 70.671875 243.476562 71.757812 245.160156 72.886719 C 246.847656 74.015625 248.503906 75.183594 250.128906 76.394531 C 251.757812 77.605469 253.351562 78.855469 254.917969 80.144531 C 256.484375 81.429688 258.019531 82.757812 259.519531 84.121094 C 261.019531 85.484375 262.488281 86.886719 263.917969 88.324219 C 265.351562 89.757812 266.746094 91.230469 268.109375 92.734375 C 269.46875 94.242188 270.792969 95.777344 272.078125 97.347656 C 273.363281 98.917969 274.609375 100.519531 275.8125 102.152344 C 277.019531 103.78125 278.1875 105.441406 279.3125 107.132812 C 280.4375 108.820312 281.519531 110.535156 282.5625 112.277344 C 283.605469 114.019531 284.601562 115.789062 285.558594 117.578125 C 286.511719 119.371094 287.421875 121.183594 288.289062 123.019531 C 289.15625 124.859375 289.976562 126.714844 290.75 128.589844 C 291.527344 130.46875 292.253906 132.363281 292.9375 134.273438 C 293.621094 136.1875 294.253906 138.117188 294.84375 140.058594 C 295.429688 142.003906 295.972656 143.960938 296.464844 145.929688 C 296.957031 147.902344 297.398438 149.882812 297.792969 151.875 C 298.191406 153.867188 298.535156 155.867188 298.832031 157.878906 C 299.128906 159.886719 299.378906 161.902344 299.578125 163.925781 C 299.773438 165.945312 299.925781 167.972656 300.023438 170 C 300.125 172.027344 300.171875 174.058594 300.171875 176.089844 Z M 300.171875 176.089844 "/>
</g>
<path style=" stroke:none;fill-rule:nonzero;fill:rgb(100%,100%,100%);fill-opacity:1;" d="M 170.472656 75.808594 C 170.472656 75.992188 170.4375 76.171875 170.367188 76.34375 C 170.296875 76.511719 170.199219 76.664062 170.066406 76.792969 C 169.9375 76.925781 169.789062 77.023438 169.617188 77.09375 C 169.449219 77.164062 169.269531 77.199219 169.085938 77.199219 C 168.902344 77.199219 168.726562 77.164062 168.554688 77.09375 C 168.386719 77.023438 168.234375 76.925781 168.105469 76.792969 C 167.976562 76.664062 167.875 76.511719 167.804688 76.34375 C 167.734375 76.171875 167.699219 75.992188 167.699219 75.808594 C 167.699219 75.625 167.734375 75.449219 167.804688 75.277344 C 167.875 75.105469 167.976562 74.957031 168.105469 74.824219 C 168.234375 74.695312 168.386719 74.59375 168.554688 74.523438 C 168.726562 74.453125 168.902344 74.417969 169.085938 74.417969 C 169.269531 74.417969 169.449219 74.453125 169.617188 74.523438 C 169.789062 74.59375 169.9375 74.695312 170.066406 74.824219 C 170.199219 74.957031 170.296875 75.105469 170.367188 75.277344 C 170.4375 75.449219 170.472656 75.625 170.472656 75.808594 Z M 170.472656 75.808594 "/>
<path style=" stroke:none;fill-rule:nonzero;fill:rgb(100%,100%,100%);fill-opacity:1;" d="M 184.71875 77.664062 C 184.71875 77.847656 184.683594 78.027344 184.613281 78.199219 C 184.542969 78.367188 184.445312 78.519531 184.3125 78.648438 C 184.183594 78.777344 184.035156 78.878906 183.863281 78.949219 C 183.695312 79.019531 183.515625 79.054688 183.332031 79.054688 C 183.148438 79.054688 182.972656 79.019531 182.800781 78.949219 C 182.632812 78.878906 182.480469 78.777344 182.351562 78.648438 C 182.222656 78.519531 182.121094 78.367188 182.050781 78.199219 C 181.980469 78.027344 181.945312 77.847656 181.945312 77.664062 C 181.945312 77.480469 181.980469 77.304688 182.050781 77.132812 C 182.121094 76.960938 182.222656 76.8125 182.351562 76.679688 C 182.480469 76.550781 182.632812 76.449219 182.800781 76.378906 C 182.972656 76.308594 183.148438 76.273438 183.332031 76.273438 C 183.515625 76.273438 183.695312 76.308594 183.863281 76.378906 C 184.035156 76.449219 184.183594 76.550781 184.3125 76.679688 C 184.445312 76.8125 184.542969 76.960938 184.613281 77.132812 C 184.683594 77.304688 184.71875 77.480469 184.71875 77.664062 Z M 184.71875 77.664062 "/>
<path style=" stroke:none;fill-rule:nonzero;fill:rgb(100%,100%,100%);fill-opacity:1;" d="M 203.40625 102.898438 C 203.40625 103.082031 203.371094 103.257812 203.300781 103.429688 C 203.230469 103.601562 203.132812 103.75 203 103.882812 C 202.871094 104.011719 202.722656 104.113281 202.550781 104.183594 C 202.382812 104.253906 202.203125 104.289062 202.019531 104.289062 C 201.835938 104.289062 201.660156 104.253906 201.488281 104.183594 C 201.320312 104.113281 201.167969 104.011719 201.039062 103.882812 C 200.910156 103.75 200.808594 103.601562 200.738281 103.429688 C 200.667969 103.257812 200.632812 103.082031 200.632812 102.898438 C 200.632812 102.710938 200.667969 102.535156 200.738281 102.363281 C 200.808594 102.195312 200.910156 102.042969 201.039062 101.914062 C 201.167969 101.78125 201.320312 101.683594 201.488281 101.613281 C 201.660156 101.542969 201.835938 101.507812 202.019531 101.507812 C 202.203125 101.507812 202.382812 101.542969 202.550781 101.613281 C 202.722656 101.683594 202.871094 101.78125 203 101.914062 C 203.132812 102.042969 203.230469 102.195312 203.300781 102.363281 C 203.371094 102.535156 203.40625 102.710938 203.40625 102.898438 Z M 203.40625 102.898438 "/>
<path style=" stroke:none;fill-rule:nonzero;fill:rgb(100%,100%,100%);fill-opacity:1;" d="M 100.90625 232.769531 C 100.90625 232.957031 100.871094 233.132812 100.800781 233.304688 C 100.730469 233.472656 100.628906 233.625 100.5 233.753906 C 100.371094 233.886719 100.21875 233.984375 100.050781 234.054688 C 99.878906 234.128906 99.703125 234.164062 99.519531 234.164062 C 99.335938 234.164062 99.15625 234.128906 98.988281 234.054688 C 98.816406 233.984375 98.667969 233.886719 98.539062 233.753906 C 98.40625 233.625 98.308594 233.472656 98.238281 233.304688 C 98.167969 233.132812 98.132812 232.957031 98.132812 232.769531 C 98.132812 232.585938 98.167969 232.410156 98.238281 232.238281 C 98.308594 232.066406 98.40625 231.917969 98.539062 231.785156 C 98.667969 231.65625 98.816406 231.554688 98.988281 231.484375 C 99.15625 231.414062 99.335938 231.378906 99.519531 231.378906 C 99.703125 231.378906 99.878906 231.414062 100.050781 231.484375 C 100.21875 231.554688 100.371094 231.65625 100.5 231.785156 C 100.628906 231.917969 100.730469 232.066406 100.800781 232.238281 C 100.871094 232.410156 100.90625 232.585938 100.90625 232.769531 Z M 100.90625 232.769531 "/>
<path style=" stroke:none;fill-rule:nonzero;fill:rgb(100%,100%,100%);fill-opacity:1;" d="M 104.515625 243.902344 C 104.515625 244.085938 104.480469 244.265625 104.410156 244.433594 C 104.339844 244.605469 104.238281 244.757812 104.109375 244.886719 C 103.976562 245.015625 103.828125 245.117188 103.65625 245.1875 C 103.488281 245.257812 103.3125 245.292969 103.125 245.292969 C 102.941406 245.292969 102.765625 245.257812 102.597656 245.1875 C 102.425781 245.117188 102.277344 245.015625 102.144531 244.886719 C 102.015625 244.757812 101.914062 244.605469 101.84375 244.433594 C 101.773438 244.265625 101.738281 244.085938 101.738281 243.902344 C 101.738281 243.71875 101.773438 243.539062 101.84375 243.371094 C 101.914062 243.199219 102.015625 243.050781 102.144531 242.917969 C 102.277344 242.789062 102.425781 242.6875 102.597656 242.617188 C 102.765625 242.546875 102.941406 242.511719 103.125 242.511719 C 103.3125 242.511719 103.488281 242.546875 103.65625 242.617188 C 103.828125 242.6875 103.976562 242.789062 104.109375 242.917969 C 104.238281 243.050781 104.339844 243.199219 104.410156 243.371094 C 104.480469 243.539062 104.515625 243.71875 104.515625 243.902344 Z M 104.515625 243.902344 "/>
<path style=" stroke:none;fill-rule:nonzero;fill:rgb(100%,100%,100%);fill-opacity:1;" d="M 86.960938 234.441406 C 86.960938 234.578125 86.933594 234.710938 86.878906 234.839844 C 86.828125 234.96875 86.753906 235.078125 86.65625 235.175781 C 86.558594 235.273438 86.445312 235.351562 86.316406 235.402344 C 86.191406 235.457031 86.058594 235.484375 85.921875 235.484375 C 85.78125 235.484375 85.648438 235.457031 85.523438 235.402344 C 85.394531 235.351562 85.28125 235.273438 85.183594 235.175781 C 85.085938 235.078125 85.011719 234.96875 84.960938 234.839844 C 84.90625 234.710938 84.878906 234.578125 84.878906 234.441406 C 84.878906 234.300781 84.90625 234.167969 84.960938 234.042969 C 85.011719 233.914062 85.085938 233.800781 85.183594 233.703125 C 85.28125 233.605469 85.394531 233.53125 85.523438 233.476562 C 85.648438 233.425781 85.78125 233.398438 85.921875 233.398438 C 86.058594 233.398438 86.191406 233.425781 86.316406 233.476562 C 86.445312 233.53125 86.558594 233.605469 86.65625 233.703125 C 86.753906 233.800781 86.828125 233.914062 86.878906 234.042969 C 86.933594 234.167969 86.960938 234.300781 86.960938 234.441406 Z M 86.960938 234.441406 "/>
<path style=" stroke:none;fill-rule:nonzero;fill:rgb(100%,100%,100%);fill-opacity:1;" d="M 143.394531 256.308594 C 143.394531 256.449219 143.367188 256.582031 143.3125 256.710938 C 143.261719 256.835938 143.1875 256.949219 143.089844 257.046875 C 142.988281 257.144531 142.878906 257.222656 142.75 257.273438 C 142.621094 257.328125 142.488281 257.355469 142.351562 257.355469 C 142.210938 257.355469 142.078125 257.328125 141.953125 257.273438 C 141.824219 257.222656 141.710938 257.144531 141.613281 257.046875 C 141.515625 256.949219 141.441406 256.835938 141.386719 256.710938 C 141.335938 256.582031 141.308594 256.449219 141.308594 256.308594 C 141.308594 256.171875 141.335938 256.035156 141.386719 255.910156 C 141.441406 255.78125 141.515625 255.667969 141.613281 255.570312 C 141.710938 255.472656 141.824219 255.394531 141.953125 255.34375 C 142.078125 255.289062 142.210938 255.265625 142.351562 255.265625 C 142.488281 255.265625 142.621094 255.289062 142.75 255.34375 C 142.878906 255.394531 142.992188 255.472656 143.089844 255.570312 C 143.1875 255.667969 143.261719 255.78125 143.3125 255.910156 C 143.367188 256.035156 143.394531 256.171875 143.394531 256.308594 Z M 143.394531 256.308594 "/>
<path style=" stroke:none;fill-rule:nonzero;fill:rgb(100%,100%,100%);fill-opacity:1;" d="M 231.898438 237.875 C 231.898438 238.011719 231.871094 238.144531 231.816406 238.273438 C 231.765625 238.398438 231.691406 238.511719 231.59375 238.609375 C 231.496094 238.707031 231.382812 238.78125 231.257812 238.835938 C 231.128906 238.890625 230.996094 238.914062 230.859375 238.914062 C 230.71875 238.914062 230.585938 238.890625 230.460938 238.835938 C 230.332031 238.78125 230.222656 238.707031 230.125 238.609375 C 230.027344 238.511719 229.949219 238.398438 229.898438 238.273438 C 229.84375 238.144531 229.820312 238.011719 229.820312 237.875 C 229.820312 237.734375 229.84375 237.601562 229.898438 237.472656 C 229.949219 237.347656 230.027344 237.234375 230.125 237.136719 C 230.222656 237.039062 230.332031 236.964844 230.460938 236.910156 C 230.585938 236.859375 230.71875 236.832031 230.859375 236.832031 C 230.996094 236.832031 231.128906 236.859375 231.257812 236.910156 C 231.382812 236.964844 231.496094 237.039062 231.59375 237.136719 C 231.691406 237.234375 231.765625 237.347656 231.820312 237.472656 C 231.871094 237.601562 231.898438 237.734375 231.898438 237.875 Z M 231.898438 237.875 "/>
<path style=" stroke:none;fill-rule:nonzero;fill:rgb(100%,100%,100%);fill-opacity:1;" d="M 257.621094 209.859375 C 257.621094 209.996094 257.59375 210.128906 257.542969 210.257812 C 257.488281 210.386719 257.414062 210.5 257.316406 210.597656 C 257.21875 210.695312 257.105469 210.769531 256.976562 210.824219 C 256.851562 210.875 256.71875 210.902344 256.578125 210.902344 C 256.441406 210.902344 256.308594 210.875 256.179688 210.824219 C 256.050781 210.769531 255.941406 210.695312 255.84375 210.597656 C 255.746094 210.5 255.667969 210.386719 255.617188 210.257812 C 255.5625 210.128906 255.535156 209.996094 255.535156 209.859375 C 255.535156 209.71875 255.5625 209.585938 255.617188 209.457031 C 255.667969 209.328125 255.746094 209.214844 255.84375 209.117188 C 255.941406 209.019531 256.050781 208.945312 256.179688 208.890625 C 256.308594 208.839844 256.441406 208.8125 256.578125 208.8125 C 256.71875 208.8125 256.851562 208.839844 256.976562 208.890625 C 257.105469 208.945312 257.21875 209.019531 257.316406 209.117188 C 257.414062 209.214844 257.488281 209.328125 257.542969 209.457031 C 257.59375 209.585938 257.621094 209.71875 257.621094 209.859375 Z M 257.621094 209.859375 "/>
<path style=" stroke:none;fill-rule:nonzero;fill:rgb(100%,100%,100%);fill-opacity:1;" d="M 131.550781 111.035156 C 131.550781 111.175781 131.523438 111.308594 131.46875 111.433594 C 131.417969 111.5625 131.34375 111.675781 131.246094 111.773438 C 131.148438 111.871094 131.035156 111.945312 130.90625 112 C 130.78125 112.050781 130.648438 112.078125 130.507812 112.078125 C 130.371094 112.078125 130.238281 112.050781 130.113281 112 C 129.984375 111.945312 129.871094 111.871094 129.773438 111.773438 C 129.675781 111.675781 129.601562 111.5625 129.550781 111.433594 C 129.496094 111.308594 129.46875 111.175781 129.46875 111.035156 C 129.46875 110.898438 129.496094 110.765625 129.550781 110.636719 C 129.601562 110.507812 129.675781 110.398438 129.773438 110.300781 C 129.871094 110.203125 129.984375 110.125 130.113281 110.074219 C 130.238281 110.019531 130.371094 109.992188 130.507812 109.992188 C 130.648438 109.992188 130.78125 110.019531 130.90625 110.074219 C 131.035156 110.125 131.148438 110.203125 131.246094 110.300781 C 131.34375 110.398438 131.417969 110.507812 131.46875 110.636719 C 131.523438 110.765625 131.550781 110.898438 131.550781 111.035156 Z M 131.550781 111.035156 "/>
<path style=" stroke:none;fill-rule:nonzero;fill:rgb(100%,100%,100%);fill-opacity:1;" d="M 159.855469 90.1875 C 159.855469 90.328125 159.832031 90.460938 159.777344 90.585938 C 159.726562 90.714844 159.648438 90.828125 159.550781 90.925781 C 159.457031 91.023438 159.34375 91.097656 159.214844 91.152344 C 159.089844 91.203125 158.957031 91.230469 158.816406 91.230469 C 158.679688 91.230469 158.546875 91.203125 158.421875 91.152344 C 158.292969 91.097656 158.179688 91.023438 158.082031 90.925781 C 157.984375 90.828125 157.910156 90.714844 157.859375 90.585938 C 157.804688 90.460938 157.777344 90.328125 157.777344 90.1875 C 157.777344 90.050781 157.804688 89.917969 157.859375 89.789062 C 157.910156 89.660156 157.984375 89.550781 158.082031 89.453125 C 158.179688 89.355469 158.292969 89.277344 158.421875 89.226562 C 158.546875 89.171875 158.679688 89.144531 158.816406 89.144531 C 158.957031 89.144531 159.089844 89.171875 159.214844 89.226562 C 159.34375 89.277344 159.457031 89.355469 159.550781 89.453125 C 159.648438 89.550781 159.726562 89.660156 159.777344 89.789062 C 159.832031 89.917969 159.855469 90.050781 159.855469 90.1875 Z M 159.855469 90.1875 "/>
<path style=" stroke:none;fill-rule:nonzero;fill:rgb(100%,100%,100%);fill-opacity:1;" d="M 156.78125 88.148438 C 156.78125 88.285156 156.757812 88.417969 156.703125 88.546875 C 156.652344 88.675781 156.574219 88.785156 156.476562 88.882812 C 156.378906 88.980469 156.269531 89.058594 156.140625 89.109375 C 156.015625 89.164062 155.882812 89.191406 155.742188 89.191406 C 155.605469 89.191406 155.472656 89.164062 155.34375 89.109375 C 155.21875 89.058594 155.105469 88.980469 155.007812 88.882812 C 154.910156 88.785156 154.835938 88.675781 154.785156 88.546875 C 154.730469 88.417969 154.703125 88.285156 154.703125 88.148438 C 154.703125 88.007812 154.730469 87.875 154.785156 87.75 C 154.835938 87.621094 154.910156 87.507812 155.007812 87.410156 C 155.105469 87.3125 155.21875 87.238281 155.34375 87.183594 C 155.472656 87.132812 155.605469 87.105469 155.742188 87.105469 C 155.882812 87.105469 156.015625 87.132812 156.140625 87.183594 C 156.269531 87.238281 156.378906 87.3125 156.476562 87.410156 C 156.574219 87.507812 156.652344 87.621094 156.703125 87.75 C 156.757812 87.875 156.78125 88.007812 156.78125 88.148438 Z M 156.78125 88.148438 "/>
<path style=" stroke:none;fill-rule:nonzero;fill:rgb(100%,100%,100%);fill-opacity:1;" d="M 154.007812 86.105469 C 154.007812 86.246094 153.980469 86.378906 153.929688 86.503906 C 153.875 86.632812 153.800781 86.746094 153.703125 86.84375 C 153.605469 86.941406 153.492188 87.015625 153.367188 87.070312 C 153.238281 87.121094 153.105469 87.148438 152.96875 87.148438 C 152.832031 87.148438 152.699219 87.121094 152.570312 87.070312 C 152.441406 87.015625 152.332031 86.941406 152.234375 86.84375 C 152.136719 86.746094 152.0625 86.632812 152.007812 86.503906 C 151.957031 86.378906 151.929688 86.246094 151.929688 86.105469 C 151.929688 85.96875 151.957031 85.835938 152.007812 85.707031 C 152.0625 85.582031 152.136719 85.46875 152.234375 85.371094 C 152.332031 85.273438 152.441406 85.195312 152.570312 85.144531 C 152.699219 85.089844 152.832031 85.066406 152.96875 85.066406 C 153.105469 85.066406 153.238281 85.089844 153.367188 85.144531 C 153.492188 85.195312 153.605469 85.273438 153.703125 85.371094 C 153.800781 85.46875 153.875 85.582031 153.929688 85.707031 C 153.980469 85.835938 154.007812 85.96875 154.007812 86.105469 Z M 154.007812 86.105469 "/>
<path style=" stroke:none;fill-rule:nonzero;fill:rgb(100%,100%,100%);fill-opacity:1;" d="M 135.988281 116.417969 C 135.988281 116.558594 135.964844 116.691406 135.910156 116.820312 C 135.859375 116.945312 135.78125 117.058594 135.683594 117.15625 C 135.585938 117.253906 135.476562 117.328125 135.347656 117.382812 C 135.21875 117.433594 135.089844 117.460938 134.949219 117.460938 C 134.8125 117.460938 134.679688 117.433594 134.550781 117.382812 C 134.425781 117.328125 134.3125 117.253906 134.214844 117.15625 C 134.117188 117.058594 134.042969 116.945312 133.988281 116.820312 C 133.9375 116.691406 133.910156 116.558594 133.910156 116.417969 C 133.910156 116.28125 133.9375 116.148438 133.988281 116.019531 C 134.042969 115.894531 134.117188 115.78125 134.214844 115.683594 C 134.3125 115.585938 134.425781 115.511719 134.550781 115.457031 C 134.679688 115.402344 134.8125 115.378906 134.949219 115.378906 C 135.089844 115.378906 135.21875 115.402344 135.347656 115.457031 C 135.476562 115.511719 135.585938 115.585938 135.683594 115.683594 C 135.78125 115.78125 135.859375 115.894531 135.910156 116.019531 C 135.964844 116.148438 135.988281 116.28125 135.988281 116.417969 Z M 135.988281 116.417969 "/>
<path style=" stroke:none;fill-rule:nonzero;fill:rgb(100%,100%,100%);fill-opacity:1;" d="M 177.6875 62.171875 C 177.6875 62.3125 177.660156 62.445312 177.609375 62.570312 C 177.554688 62.699219 177.480469 62.8125 177.382812 62.910156 C 177.285156 63.007812 177.171875 63.082031 177.046875 63.136719 C 176.917969 63.1875 176.785156 63.214844 176.648438 63.214844 C 176.507812 63.214844 176.378906 63.1875 176.25 63.136719 C 176.121094 63.082031 176.011719 63.007812 175.914062 62.910156 C 175.816406 62.8125 175.738281 62.699219 175.6875 62.570312 C 175.632812 62.445312 175.609375 62.3125 175.609375 62.171875 C 175.609375 62.035156 175.632812 61.902344 175.6875 61.773438 C 175.738281 61.644531 175.816406 61.535156 175.914062 61.4375 C 176.011719 61.339844 176.121094 61.261719 176.25 61.210938 C 176.378906 61.15625 176.507812 61.128906 176.648438 61.128906 C 176.785156 61.128906 176.917969 61.15625 177.046875 61.210938 C 177.171875 61.261719 177.285156 61.339844 177.382812 61.4375 C 177.480469 61.535156 177.554688 61.644531 177.609375 61.773438 C 177.660156 61.902344 177.6875 62.035156 177.6875 62.171875 Z M 177.6875 62.171875 "/>
<path style=" stroke:none;fill-rule:nonzero;fill:rgb(100%,100%,100%);fill-opacity:1;" d="M 184.535156 92.230469 C 184.535156 92.367188 184.507812 92.5 184.457031 92.628906 C 184.402344 92.753906 184.328125 92.867188 184.230469 92.964844 C 184.132812 93.0625 184.019531 93.140625 183.894531 93.191406 C 183.765625 93.246094 183.632812 93.269531 183.496094 93.269531 C 183.359375 93.269531 183.226562 93.246094 183.097656 93.191406 C 182.972656 93.140625 182.859375 93.0625 182.761719 92.964844 C 182.664062 92.867188 182.589844 92.753906 182.535156 92.628906 C 182.484375 92.5 182.457031 92.367188 182.457031 92.230469 C 182.457031 92.089844 182.484375 91.957031 182.535156 91.832031 C 182.589844 91.703125 182.664062 91.589844 182.761719 91.492188 C 182.859375 91.394531 182.972656 91.320312 183.097656 91.265625 C 183.226562 91.214844 183.359375 91.1875 183.496094 91.1875 C 183.632812 91.1875 183.765625 91.214844 183.894531 91.265625 C 184.019531 91.320312 184.132812 91.394531 184.230469 91.492188 C 184.328125 91.589844 184.402344 91.703125 184.457031 91.832031 C 184.507812 91.957031 184.535156 92.089844 184.535156 92.230469 Z M 184.535156 92.230469 "/>
<path style=" stroke:none;fill-rule:nonzero;fill:rgb(100%,100%,100%);fill-opacity:1;" d="M 173.734375 86.359375 C 173.734375 86.5 173.707031 86.632812 173.652344 86.757812 C 173.601562 86.886719 173.527344 87 173.429688 87.097656 C 173.332031 87.195312 173.21875 87.269531 173.09375 87.324219 C 172.964844 87.375 172.832031 87.402344 172.695312 87.402344 C 172.554688 87.402344 172.425781 87.375 172.296875 87.324219 C 172.167969 87.269531 172.058594 87.195312 171.960938 87.097656 C 171.863281 87 171.785156 86.886719 171.734375 86.757812 C 171.679688 86.632812 171.65625 86.5 171.65625 86.359375 C 171.65625 86.222656 171.679688 86.089844 171.734375 85.960938 C 171.785156 85.832031 171.863281 85.722656 171.960938 85.625 C 172.058594 85.527344 172.167969 85.449219 172.296875 85.398438 C 172.425781 85.34375 172.554688 85.316406 172.695312 85.316406 C 172.832031 85.316406 172.964844 85.34375 173.09375 85.398438 C 173.21875 85.449219 173.332031 85.527344 173.429688 85.625 C 173.527344 85.722656 173.601562 85.832031 173.652344 85.960938 C 173.707031 86.089844 173.734375 86.222656 173.734375 86.359375 Z M 173.734375 86.359375 "/>
<path style=" stroke:none;fill-rule:nonzero;fill:rgb(100%,100%,100%);fill-opacity:1;" d="M 155.230469 94.339844 C 155.230469 94.480469 155.203125 94.613281 155.152344 94.738281 C 155.097656 94.867188 155.023438 94.980469 154.925781 95.078125 C 154.828125 95.175781 154.71875 95.25 154.589844 95.304688 C 154.460938 95.355469 154.328125 95.382812 154.191406 95.382812 C 154.054688 95.382812 153.921875 95.355469 153.792969 95.304688 C 153.667969 95.25 153.554688 95.175781 153.457031 95.078125 C 153.359375 94.980469 153.285156 94.867188 153.230469 94.738281 C 153.179688 94.613281 153.152344 94.480469 153.152344 94.339844 C 153.152344 94.203125 153.179688 94.070312 153.230469 93.941406 C 153.285156 93.816406 153.359375 93.703125 153.457031 93.605469 C 153.554688 93.507812 153.667969 93.429688 153.792969 93.378906 C 153.921875 93.324219 154.054688 93.300781 154.191406 93.300781 C 154.328125 93.300781 154.460938 93.324219 154.589844 93.378906 C 154.71875 93.429688 154.828125 93.507812 154.925781 93.605469 C 155.023438 93.703125 155.097656 93.816406 155.152344 93.941406 C 155.203125 94.070312 155.230469 94.203125 155.230469 94.339844 Z M 155.230469 94.339844 "/>
<path style=" stroke:none;fill-rule:nonzero;fill:rgb(100%,100%,100%);fill-opacity:1;" d="M 236.824219 265.402344 C 236.824219 265.542969 236.796875 265.675781 236.746094 265.800781 C 236.691406 265.929688 236.617188 266.042969 236.519531 266.140625 C 236.421875 266.238281 236.3125 266.3125 236.183594 266.367188 C 236.054688 266.417969 235.921875 266.445312 235.785156 266.445312 C 235.648438 266.445312 235.515625 266.417969 235.386719 266.367188 C 235.261719 266.3125 235.148438 266.238281 235.050781 266.140625 C 234.953125 266.042969 234.878906 265.929688 234.824219 265.800781 C 234.773438 265.675781 234.746094 265.542969 234.746094 265.402344 C 234.746094 265.265625 234.773438 265.132812 234.824219 265.003906 C 234.878906 264.875 234.953125 264.765625 235.050781 264.667969 C 235.148438 264.570312 235.261719 264.492188 235.386719 264.441406 C 235.515625 264.386719 235.648438 264.359375 235.785156 264.359375 C 235.921875 264.359375 236.054688 264.386719 236.183594 264.441406 C 236.3125 264.492188 236.421875 264.570312 236.519531 264.667969 C 236.617188 264.765625 236.691406 264.875 236.746094 265.003906 C 236.796875 265.132812 236.824219 265.265625 236.824219 265.402344 Z M 236.824219 265.402344 "/>
<path style=" stroke:none;fill-rule:nonzero;fill:rgb(100%,100%,100%);fill-opacity:1;" d="M 98.804688 239.820312 C 98.804688 239.960938 98.777344 240.09375 98.722656 240.222656 C 98.671875 240.347656 98.597656 240.460938 98.5 240.558594 C 98.402344 240.660156 98.289062 240.734375 98.160156 240.785156 C 98.03125 240.839844 97.898438 240.867188 97.761719 240.867188 C 97.621094 240.867188 97.488281 240.839844 97.363281 240.785156 C 97.234375 240.734375 97.121094 240.660156 97.023438 240.558594 C 96.925781 240.460938 96.851562 240.347656 96.796875 240.222656 C 96.746094 240.09375 96.71875 239.960938 96.71875 239.820312 C 96.71875 239.683594 96.746094 239.550781 96.796875 239.421875 C 96.851562 239.292969 96.925781 239.179688 97.023438 239.082031 C 97.121094 238.984375 97.234375 238.910156 97.363281 238.855469 C 97.488281 238.800781 97.621094 238.777344 97.761719 238.777344 C 97.898438 238.777344 98.03125 238.800781 98.160156 238.855469 C 98.289062 238.910156 98.402344 238.984375 98.5 239.082031 C 98.597656 239.179688 98.671875 239.292969 98.722656 239.421875 C 98.777344 239.550781 98.804688 239.683594 98.804688 239.820312 Z M 98.804688 239.820312 "/>
<path style=" stroke:none;fill-rule:nonzero;fill:rgb(100%,100%,100%);fill-opacity:1;" d="M 171.144531 253.273438 C 171.144531 253.410156 171.121094 253.542969 171.066406 253.671875 C 171.015625 253.800781 170.9375 253.914062 170.839844 254.011719 C 170.742188 254.109375 170.628906 254.183594 170.503906 254.238281 C 170.375 254.292969 170.242188 254.316406 170.105469 254.316406 C 169.964844 254.316406 169.832031 254.292969 169.703125 254.238281 C 169.578125 254.183594 169.464844 254.109375 169.367188 254.011719 C 169.269531 253.914062 169.195312 253.800781 169.140625 253.671875 C 169.089844 253.542969 169.0625 253.410156 169.0625 253.273438 C 169.0625 253.132812 169.089844 253 169.140625 252.871094 C 169.195312 252.746094 169.269531 252.632812 169.367188 252.535156 C 169.464844 252.433594 169.578125 252.359375 169.703125 252.308594 C 169.832031 252.253906 169.964844 252.226562 170.105469 252.226562 C 170.242188 252.226562 170.375 252.253906 170.503906 252.308594 C 170.628906 252.359375 170.742188 252.433594 170.839844 252.535156 C 170.9375 252.632812 171.015625 252.746094 171.066406 252.871094 C 171.121094 253 171.144531 253.132812 171.144531 253.273438 Z M 171.144531 253.273438 "/>
<path style=" stroke:none;fill-rule:nonzero;fill:rgb(100%,100%,100%);fill-opacity:1;" d="M 120.332031 238.988281 C 120.332031 239.125 120.308594 239.257812 120.253906 239.386719 C 120.203125 239.515625 120.125 239.628906 120.027344 239.726562 C 119.929688 239.824219 119.816406 239.898438 119.691406 239.953125 C 119.5625 240.003906 119.429688 240.03125 119.292969 240.03125 C 119.152344 240.03125 119.019531 240.003906 118.890625 239.953125 C 118.765625 239.898438 118.652344 239.824219 118.554688 239.726562 C 118.457031 239.628906 118.382812 239.515625 118.328125 239.386719 C 118.277344 239.257812 118.25 239.125 118.25 238.988281 C 118.25 238.847656 118.277344 238.714844 118.328125 238.585938 C 118.382812 238.457031 118.457031 238.34375 118.554688 238.246094 C 118.652344 238.148438 118.765625 238.074219 118.890625 238.019531 C 119.019531 237.96875 119.152344 237.941406 119.292969 237.941406 C 119.429688 237.941406 119.5625 237.96875 119.691406 238.019531 C 119.816406 238.074219 119.929688 238.148438 120.027344 238.246094 C 120.125 238.34375 120.203125 238.457031 120.253906 238.585938 C 120.308594 238.714844 120.332031 238.847656 120.332031 238.988281 Z M 120.332031 238.988281 "/>
<path style=" stroke:none;fill-rule:nonzero;fill:rgb(100%,100%,100%);fill-opacity:1;" d="M 129.332031 253.714844 C 129.332031 253.851562 129.304688 253.988281 129.253906 254.113281 C 129.199219 254.242188 129.125 254.355469 129.027344 254.453125 C 128.929688 254.550781 128.816406 254.628906 128.6875 254.679688 C 128.5625 254.734375 128.425781 254.761719 128.289062 254.761719 C 128.152344 254.761719 128.019531 254.734375 127.890625 254.679688 C 127.761719 254.628906 127.648438 254.550781 127.550781 254.453125 C 127.453125 254.355469 127.378906 254.242188 127.328125 254.113281 C 127.273438 253.988281 127.246094 253.851562 127.246094 253.714844 C 127.246094 253.574219 127.273438 253.441406 127.328125 253.316406 C 127.378906 253.1875 127.453125 253.074219 127.550781 252.976562 C 127.648438 252.878906 127.761719 252.800781 127.890625 252.75 C 128.019531 252.695312 128.152344 252.667969 128.289062 252.667969 C 128.425781 252.667969 128.5625 252.695312 128.6875 252.75 C 128.816406 252.800781 128.929688 252.878906 129.027344 252.976562 C 129.125 253.074219 129.199219 253.1875 129.253906 253.316406 C 129.304688 253.441406 129.332031 253.574219 129.332031 253.714844 Z M 129.332031 253.714844 "/>
<path style=" stroke:none;fill-rule:nonzero;fill:rgb(100%,100%,100%);fill-opacity:1;" d="M 195.566406 244.4375 C 195.566406 244.574219 195.539062 244.710938 195.488281 244.835938 C 195.433594 244.964844 195.359375 245.078125 195.261719 245.175781 C 195.164062 245.273438 195.050781 245.347656 194.925781 245.402344 C 194.796875 245.453125 194.664062 245.480469 194.527344 245.480469 C 194.390625 245.480469 194.257812 245.453125 194.128906 245.402344 C 194 245.347656 193.890625 245.273438 193.792969 245.175781 C 193.695312 245.078125 193.621094 244.964844 193.566406 244.835938 C 193.515625 244.710938 193.488281 244.574219 193.488281 244.4375 C 193.488281 244.300781 193.515625 244.167969 193.566406 244.039062 C 193.621094 243.910156 193.695312 243.796875 193.792969 243.699219 C 193.890625 243.601562 194 243.527344 194.128906 243.476562 C 194.257812 243.421875 194.390625 243.394531 194.527344 243.394531 C 194.664062 243.394531 194.796875 243.421875 194.925781 243.476562 C 195.050781 243.527344 195.164062 243.601562 195.261719 243.699219 C 195.359375 243.796875 195.433594 243.910156 195.488281 244.039062 C 195.539062 244.167969 195.566406 244.300781 195.566406 244.4375 Z M 195.566406 244.4375 "/>
<path style=" stroke:none;fill-rule:nonzero;fill:rgb(100%,100%,100%);fill-opacity:1;" d="M 232.082031 223.773438 C 232.082031 223.910156 232.054688 224.042969 232.003906 224.171875 C 231.949219 224.300781 231.875 224.410156 231.777344 224.507812 C 231.679688 224.605469 231.566406 224.683594 231.441406 224.734375 C 231.3125 224.789062 231.179688 224.816406 231.042969 224.816406 C 230.90625 224.816406 230.773438 224.789062 230.644531 224.734375 C 230.519531 224.683594 230.40625 224.605469 230.308594 224.507812 C 230.210938 224.410156 230.136719 224.300781 230.082031 224.171875 C 230.03125 224.042969 230.003906 223.910156 230.003906 223.773438 C 230.003906 223.632812 230.03125 223.5 230.082031 223.375 C 230.136719 223.246094 230.210938 223.132812 230.308594 223.035156 C 230.40625 222.9375 230.519531 222.863281 230.644531 222.808594 C 230.773438 222.757812 230.90625 222.730469 231.042969 222.730469 C 231.179688 222.730469 231.3125 222.757812 231.441406 222.808594 C 231.566406 222.863281 231.679688 222.9375 231.777344 223.035156 C 231.875 223.132812 231.949219 223.246094 232.003906 223.375 C 232.054688 223.5 232.082031 223.632812 232.082031 223.773438 Z M 232.082031 223.773438 "/>
<path style=" stroke:none;fill-rule:nonzero;fill:rgb(100%,100%,100%);fill-opacity:1;" d="M 259.769531 236.457031 C 259.769531 236.59375 259.742188 236.726562 259.6875 236.855469 C 259.636719 236.984375 259.5625 237.097656 259.464844 237.195312 C 259.367188 237.292969 259.253906 237.367188 259.125 237.417969 C 259 237.472656 258.867188 237.5 258.726562 237.5 C 258.589844 237.5 258.457031 237.472656 258.332031 237.417969 C 258.203125 237.367188 258.089844 237.292969 257.992188 237.195312 C 257.894531 237.097656 257.820312 236.984375 257.769531 236.855469 C 257.714844 236.726562 257.6875 236.59375 257.6875 236.457031 C 257.6875 236.320312 257.714844 236.1875 257.769531 236.058594 C 257.820312 235.929688 257.894531 235.816406 257.992188 235.71875 C 258.089844 235.621094 258.203125 235.546875 258.332031 235.496094 C 258.457031 235.441406 258.589844 235.414062 258.726562 235.414062 C 258.867188 235.414062 259 235.441406 259.125 235.496094 C 259.253906 235.546875 259.367188 235.621094 259.464844 235.71875 C 259.5625 235.816406 259.636719 235.929688 259.6875 236.058594 C 259.742188 236.1875 259.769531 236.320312 259.769531 236.457031 Z M 259.769531 236.457031 "/>
<path style=" stroke:none;fill-rule:nonzero;fill:rgb(100%,100%,100%);fill-opacity:1;" d="M 269.203125 242.511719 C 269.203125 242.648438 269.175781 242.78125 269.125 242.910156 C 269.070312 243.039062 268.996094 243.152344 268.898438 243.25 C 268.800781 243.347656 268.6875 243.421875 268.5625 243.472656 C 268.433594 243.527344 268.300781 243.554688 268.164062 243.554688 C 268.027344 243.554688 267.894531 243.527344 267.765625 243.472656 C 267.640625 243.421875 267.527344 243.347656 267.429688 243.25 C 267.332031 243.152344 267.257812 243.039062 267.203125 242.910156 C 267.152344 242.78125 267.125 242.648438 267.125 242.511719 C 267.125 242.375 267.152344 242.242188 267.203125 242.113281 C 267.257812 241.984375 267.332031 241.871094 267.429688 241.773438 C 267.527344 241.675781 267.640625 241.601562 267.765625 241.546875 C 267.894531 241.496094 268.027344 241.46875 268.164062 241.46875 C 268.300781 241.46875 268.433594 241.496094 268.5625 241.546875 C 268.6875 241.601562 268.800781 241.675781 268.898438 241.773438 C 268.996094 241.871094 269.070312 241.984375 269.125 242.113281 C 269.175781 242.242188 269.203125 242.375 269.203125 242.511719 Z M 269.203125 242.511719 "/>
<path style=" stroke:none;fill-rule:nonzero;fill:rgb(100%,100%,100%);fill-opacity:1;" d="M 270.753906 226 C 270.753906 226.136719 270.726562 226.269531 270.675781 226.398438 C 270.621094 226.527344 270.546875 226.636719 270.449219 226.734375 C 270.351562 226.832031 270.242188 226.910156 270.113281 226.960938 C 269.984375 227.015625 269.851562 227.042969 269.714844 227.042969 C 269.578125 227.042969 269.445312 227.015625 269.316406 226.960938 C 269.191406 226.910156 269.078125 226.832031 268.980469 226.734375 C 268.882812 226.636719 268.808594 226.527344 268.753906 226.398438 C 268.703125 226.269531 268.675781 226.136719 268.675781 226 C 268.675781 225.859375 268.703125 225.726562 268.753906 225.601562 C 268.808594 225.472656 268.882812 225.359375 268.980469 225.261719 C 269.078125 225.164062 269.191406 225.089844 269.316406 225.035156 C 269.445312 224.984375 269.578125 224.957031 269.714844 224.957031 C 269.851562 224.957031 269.984375 224.984375 270.113281 225.035156 C 270.242188 225.089844 270.351562 225.164062 270.449219 225.261719 C 270.546875 225.359375 270.621094 225.472656 270.675781 225.601562 C 270.726562 225.726562 270.753906 225.859375 270.753906 226 Z M 270.753906 226 "/>
<path style=" stroke:none;fill-rule:nonzero;fill:rgb(100%,100%,100%);fill-opacity:1;" d="M 133.097656 202.621094 C 133.097656 202.761719 133.070312 202.894531 133.019531 203.019531 C 132.964844 203.148438 132.890625 203.261719 132.792969 203.359375 C 132.695312 203.457031 132.582031 203.53125 132.457031 203.585938 C 132.328125 203.636719 132.195312 203.664062 132.058594 203.664062 C 131.917969 203.664062 131.789062 203.636719 131.660156 203.585938 C 131.53125 203.53125 131.421875 203.457031 131.324219 203.359375 C 131.226562 203.261719 131.148438 203.148438 131.097656 203.019531 C 131.042969 202.894531 131.019531 202.761719 131.019531 202.621094 C 131.019531 202.484375 131.042969 202.351562 131.097656 202.222656 C 131.148438 202.09375 131.226562 201.984375 131.324219 201.886719 C 131.421875 201.789062 131.53125 201.710938 131.660156 201.660156 C 131.789062 201.605469 131.917969 201.578125 132.058594 201.578125 C 132.195312 201.578125 132.328125 201.605469 132.457031 201.660156 C 132.582031 201.710938 132.695312 201.789062 132.792969 201.886719 C 132.890625 201.984375 132.964844 202.09375 133.019531 202.222656 C 133.070312 202.351562 133.097656 202.484375 133.097656 202.621094 Z M 133.097656 202.621094 "/>
<path style=" stroke:none;fill-rule:nonzero;fill:rgb(100%,100%,100%);fill-opacity:1;" d="M 133.839844 226.554688 C 133.839844 226.738281 133.804688 226.917969 133.734375 227.089844 C 133.664062 227.257812 133.5625 227.410156 133.433594 227.539062 C 133.304688 227.671875 133.152344 227.769531 132.984375 227.839844 C 132.8125 227.910156 132.636719 227.945312 132.453125 227.945312 C 132.269531 227.945312 132.089844 227.910156 131.921875 227.839844 C 131.75 227.769531 131.601562 227.671875 131.472656 227.539062 C 131.339844 227.410156 131.242188 227.257812 131.171875 227.089844 C 131.101562 226.917969 131.066406 226.738281 131.066406 226.554688 C 131.066406 226.371094 131.101562 226.195312 131.171875 226.023438 C 131.242188 225.851562 131.339844 225.703125 131.472656 225.570312 C 131.601562 225.441406 131.75 225.339844 131.921875 225.269531 C 132.089844 225.199219 132.269531 225.164062 132.453125 225.164062 C 132.636719 225.164062 132.8125 225.199219 132.984375 225.269531 C 133.152344 225.339844 133.304688 225.441406 133.433594 225.570312 C 133.5625 225.703125 133.664062 225.851562 133.734375 226.023438 C 133.804688 226.195312 133.839844 226.371094 133.839844 226.554688 Z M 133.839844 226.554688 "/>
<path style=" stroke:none;fill-rule:nonzero;fill:rgb(100%,100%,100%);fill-opacity:1;" d="M 142.164062 244.179688 C 142.164062 244.367188 142.128906 244.542969 142.058594 244.714844 C 141.988281 244.882812 141.890625 245.035156 141.757812 245.164062 C 141.628906 245.296875 141.480469 245.394531 141.308594 245.46875 C 141.140625 245.539062 140.960938 245.574219 140.777344 245.574219 C 140.59375 245.574219 140.417969 245.539062 140.246094 245.46875 C 140.078125 245.394531 139.925781 245.296875 139.796875 245.164062 C 139.667969 245.035156 139.566406 244.882812 139.496094 244.714844 C 139.425781 244.542969 139.390625 244.367188 139.390625 244.179688 C 139.390625 243.996094 139.425781 243.820312 139.496094 243.648438 C 139.566406 243.476562 139.667969 243.328125 139.796875 243.199219 C 139.925781 243.066406 140.078125 242.964844 140.246094 242.894531 C 140.417969 242.824219 140.59375 242.789062 140.777344 242.789062 C 140.960938 242.789062 141.140625 242.824219 141.308594 242.894531 C 141.480469 242.964844 141.628906 243.066406 141.757812 243.199219 C 141.890625 243.328125 141.988281 243.476562 142.058594 243.648438 C 142.128906 243.820312 142.164062 243.996094 142.164062 244.179688 Z M 142.164062 244.179688 "/>
<path style=" stroke:none;fill-rule:nonzero;fill:rgb(100%,100%,100%);fill-opacity:1;" d="M 241.890625 225.8125 C 241.890625 225.996094 241.855469 226.175781 241.785156 226.347656 C 241.714844 226.515625 241.617188 226.667969 241.484375 226.796875 C 241.355469 226.929688 241.203125 227.027344 241.035156 227.097656 C 240.863281 227.167969 240.6875 227.203125 240.503906 227.203125 C 240.320312 227.203125 240.144531 227.167969 239.972656 227.097656 C 239.804688 227.027344 239.652344 226.929688 239.523438 226.796875 C 239.394531 226.667969 239.292969 226.515625 239.222656 226.347656 C 239.152344 226.175781 239.117188 225.996094 239.117188 225.8125 C 239.117188 225.628906 239.152344 225.453125 239.222656 225.28125 C 239.292969 225.109375 239.394531 224.960938 239.523438 224.828125 C 239.652344 224.699219 239.804688 224.597656 239.972656 224.527344 C 240.144531 224.457031 240.320312 224.421875 240.503906 224.421875 C 240.6875 224.421875 240.863281 224.457031 241.035156 224.527344 C 241.203125 224.597656 241.355469 224.699219 241.484375 224.828125 C 241.617188 224.960938 241.714844 225.109375 241.785156 225.28125 C 241.855469 225.453125 241.890625 225.628906 241.890625 225.8125 Z M 241.890625 225.8125 "/>
<path style=" stroke:none;fill-rule:nonzero;fill:rgb(100%,100%,100%);fill-opacity:1;" d="M 277.785156 223.773438 C 277.785156 223.957031 277.75 224.132812 277.679688 224.304688 C 277.609375 224.476562 277.507812 224.625 277.378906 224.757812 C 277.25 224.886719 277.097656 224.988281 276.929688 225.058594 C 276.757812 225.128906 276.582031 225.164062 276.398438 225.164062 C 276.214844 225.164062 276.035156 225.128906 275.867188 225.058594 C 275.695312 224.988281 275.546875 224.886719 275.417969 224.757812 C 275.285156 224.625 275.1875 224.476562 275.117188 224.304688 C 275.046875 224.132812 275.011719 223.957031 275.011719 223.773438 C 275.011719 223.589844 275.046875 223.410156 275.117188 223.238281 C 275.1875 223.070312 275.285156 222.917969 275.417969 222.789062 C 275.546875 222.65625 275.695312 222.558594 275.867188 222.488281 C 276.035156 222.417969 276.214844 222.382812 276.398438 222.382812 C 276.582031 222.382812 276.757812 222.417969 276.929688 222.488281 C 277.097656 222.558594 277.25 222.65625 277.378906 222.789062 C 277.507812 222.917969 277.609375 223.070312 277.679688 223.238281 C 277.75 223.410156 277.785156 223.589844 277.785156 223.773438 Z M 277.785156 223.773438 "/>
<path style=" stroke:none;fill-rule:nonzero;fill:rgb(100%,100%,100%);fill-opacity:1;" d="M 260.023438 216.164062 C 260.023438 216.351562 259.988281 216.527344 259.917969 216.699219 C 259.847656 216.867188 259.746094 217.019531 259.617188 217.148438 C 259.488281 217.28125 259.335938 217.378906 259.167969 217.453125 C 258.996094 217.523438 258.820312 217.558594 258.636719 217.558594 C 258.453125 217.558594 258.273438 217.523438 258.105469 217.453125 C 257.933594 217.378906 257.785156 217.28125 257.65625 217.148438 C 257.523438 217.019531 257.425781 216.867188 257.355469 216.699219 C 257.285156 216.527344 257.25 216.351562 257.25 216.164062 C 257.25 215.980469 257.285156 215.804688 257.355469 215.632812 C 257.425781 215.460938 257.523438 215.3125 257.65625 215.183594 C 257.785156 215.050781 257.933594 214.949219 258.105469 214.878906 C 258.273438 214.808594 258.453125 214.773438 258.636719 214.773438 C 258.820312 214.773438 258.996094 214.808594 259.167969 214.878906 C 259.335938 214.949219 259.488281 215.050781 259.617188 215.183594 C 259.746094 215.3125 259.847656 215.460938 259.917969 215.632812 C 259.988281 215.804688 260.023438 215.980469 260.023438 216.164062 Z M 260.023438 216.164062 "/>
<path style=" stroke:none;fill-rule:nonzero;fill:rgb(100%,100%,100%);fill-opacity:1;" d="M 241.890625 216.90625 C 241.890625 217.09375 241.855469 217.269531 241.785156 217.441406 C 241.714844 217.609375 241.617188 217.761719 241.484375 217.890625 C 241.355469 218.023438 241.203125 218.121094 241.035156 218.195312 C 240.863281 218.265625 240.6875 218.300781 240.503906 218.300781 C 240.320312 218.300781 240.144531 218.265625 239.972656 218.195312 C 239.804688 218.121094 239.652344 218.023438 239.523438 217.890625 C 239.394531 217.761719 239.292969 217.609375 239.222656 217.441406 C 239.152344 217.269531 239.117188 217.09375 239.117188 216.90625 C 239.117188 216.722656 239.152344 216.546875 239.222656 216.375 C 239.292969 216.203125 239.394531 216.054688 239.523438 215.925781 C 239.652344 215.792969 239.804688 215.691406 239.972656 215.621094 C 240.144531 215.550781 240.320312 215.515625 240.503906 215.515625 C 240.6875 215.515625 240.863281 215.550781 241.035156 215.621094 C 241.203125 215.691406 241.355469 215.792969 241.484375 215.925781 C 241.617188 216.054688 241.714844 216.203125 241.785156 216.375 C 241.855469 216.546875 241.890625 216.722656 241.890625 216.90625 Z M 241.890625 216.90625 "/>
<path style=" stroke:none;fill-rule:nonzero;fill:rgb(100%,100%,100%);fill-opacity:1;" d="M 203.070312 74.9375 L 206.523438 74.605469 L 203.082031 74.410156 C 202.972656 73.742188 202.4375 73.222656 201.765625 73.132812 L 201.4375 69.691406 L 201.238281 73.164062 C 200.617188 73.300781 200.140625 73.824219 200.0625 74.472656 L 196.535156 74.796875 L 200.085938 74.988281 C 200.214844 75.582031 200.695312 76.050781 201.300781 76.160156 L 201.621094 79.710938 L 201.808594 76.167969 C 202.125 76.117188 202.398438 75.976562 202.632812 75.75 C 202.863281 75.527344 203.011719 75.253906 203.070312 74.9375 Z M 144.863281 113.460938 L 148.316406 113.128906 L 144.875 112.933594 C 144.769531 112.265625 144.230469 111.746094 143.558594 111.65625 L 143.230469 108.214844 L 143.035156 111.683594 C 142.410156 111.824219 141.929688 112.347656 141.855469 112.996094 L 138.328125 113.316406 L 141.878906 113.511719 C 142.007812 114.105469 142.488281 114.574219 143.09375 114.683594 L 143.414062 118.234375 L 143.605469 114.691406 C 143.921875 114.636719 144.199219 114.5 144.429688 114.273438 C 144.660156 114.046875 144.804688 113.777344 144.867188 113.460938 Z M 273.871094 215.3125 L 277.324219 214.980469 L 273.882812 214.785156 C 273.777344 214.117188 273.238281 213.597656 272.566406 213.507812 L 272.238281 210.066406 L 272.042969 213.539062 C 271.421875 213.675781 270.941406 214.199219 270.867188 214.847656 L 267.339844 215.171875 L 270.890625 215.363281 C 271.019531 215.957031 271.5 216.425781 272.105469 216.535156 L 272.425781 220.085938 L 272.617188 216.542969 C 272.933594 216.488281 273.207031 216.351562 273.4375 216.125 C 273.667969 215.898438 273.8125 215.628906 273.875 215.3125 Z M 133.207031 268.566406 L 136.660156 268.234375 L 133.21875 268.039062 C 133.109375 267.371094 132.574219 266.851562 131.902344 266.765625 L 131.574219 263.320312 L 131.378906 266.792969 C 130.753906 266.929688 130.273438 267.453125 130.199219 268.101562 L 126.671875 268.425781 L 130.222656 268.617188 C 130.351562 269.210938 130.832031 269.683594 131.4375 269.792969 L 131.757812 273.339844 L 131.949219 269.796875 C 132.265625 269.746094 132.542969 269.605469 132.773438 269.378906 C 133.003906 269.15625 133.148438 268.882812 133.210938 268.566406 Z M 262.90625 242.59375 L 266.359375 242.261719 L 262.917969 242.066406 C 262.8125 241.398438 262.273438 240.875 261.601562 240.789062 L 261.273438 237.34375 L 261.078125 240.8125 C 260.457031 240.953125 259.976562 241.476562 259.898438 242.125 L 256.371094 242.445312 L 259.925781 242.636719 C 260.054688 243.234375 260.535156 243.703125 261.140625 243.8125 L 261.460938 247.363281 L 261.652344 243.820312 C 262.285156 243.71875 262.792969 243.222656 262.910156 242.59375 Z M 262.90625 242.59375 "/>
<g clip-path="url(#clip2)" clip-rule="nonzero">
<path style=" stroke:none;fill-rule:nonzero;fill:rgb(98.81897%,23.919678%,12.939453%);fill-opacity:1;" d="M 205.746094 146.359375 C 191.355469 151.96875 177.316406 156.972656 165.476562 160.691406 C 141.40625 168.25 75.554688 188.707031 35.777344 214.496094 L 39.105469 215.792969 C 63.34375 202.066406 79.101562 197.75 94.242188 192.972656 C 110.710938 187.777344 163.941406 175.285156 188.046875 168.484375 C 196.1875 166.1875 205.730469 163.175781 215.800781 159.515625 C 213.449219 156.230469 210.972656 152.929688 208.363281 149.640625 L 205.71875 146.359375 Z M 223.332031 170.664062 C 219.847656 173.023438 216.925781 174.90625 214.882812 176.09375 C 203.039062 182.957031 145.3125 222.476562 132.179688 231.566406 C 119.042969 240.660156 82.59375 275.167969 71.863281 285.1875 L 71.492188 289.269531 C 106.089844 258.097656 116.945312 250.414062 130.699219 239.917969 C 147.71875 226.929688 182.933594 202.902344 194.898438 195.203125 L 225.921875 174.882812 L 225.46875 174.117188 L 223.335938 170.664062 Z M 277.417969 113.378906 C 260.5625 123.289062 234 135.242188 208.222656 145.390625 L 210.0625 147.679688 C 212.890625 151.25 215.609375 154.902344 218.214844 158.640625 C 238.476562 151.15625 260.707031 141.113281 278.347656 128.957031 C 269.945312 136.941406 242.164062 157.757812 225.222656 169.363281 L 227.757812 173.632812 C 253.417969 156.425781 270.6875 143.746094 280.78125 135.273438 C 294.65625 123.585938 326.292969 97.425781 338.320312 62.359375 C 317.230469 89.261719 292.28125 104.660156 277.449219 113.378906 Z M 277.417969 113.378906 "/>
</g>
<path style=" stroke:none;fill-rule:nonzero;fill:rgb(100%,100%,100%);fill-opacity:1;" d="M 160.46875 206.828125 L 151.128906 195.191406 L 140.621094 180.75 L 137.480469 181.539062 C 141.472656 187.773438 145.765625 193.792969 150.363281 199.59375 L 158.503906 209.578125 L 160.335938 212.277344 L 163.355469 210.21875 L 160.457031 206.832031 Z M 180.386719 224.960938 C 178.144531 222.832031 172.679688 219.28125 167.050781 213.953125 L 163.277344 216.5625 C 166.929688 221.726562 171.910156 228.066406 175.804688 229.921875 C 181.675781 232.710938 183.257812 227.695312 180.386719 224.964844 Z M 210.0625 147.652344 C 177.707031 106.816406 138.210938 84.386719 121.144531 97.960938 C 107.910156 108.476562 113.34375 139.324219 131.585938 171.695312 L 134.359375 170.769531 C 115.953125 139.226562 110.910156 109.914062 123.394531 99.96875 C 139.078125 87.46875 176.957031 109.988281 208.371094 149.644531 C 214.847656 157.847656 220.59375 166.085938 225.433594 174.117188 C 243.972656 204.886719 249.664062 232.710938 236.851562 244.0625 C 232.9375 247.539062 220.957031 248.902344 205.265625 241.820312 C 205.050781 242.132812 205.398438 242.84375 205.675781 243.058594 C 219.21875 248.519531 232.195312 250.605469 238.738281 245.382812 C 254.480469 232.84375 242.386719 188.550781 210.0625 147.714844 Z M 71.304688 152.527344 L 92.027344 152.527344 L 109.421875 182.121094 L 109.421875 159.019531 C 109.421875 156.425781 106.136719 153.039062 104.980469 152.527344 L 119.320312 152.527344 C 118.441406 152.757812 115.617188 156.191406 115.617188 159.019531 L 115.617188 192.972656 C 115.617188 195.0625 118.625 197.9375 120.058594 199.050781 L 100.078125 199.050781 L 82.40625 169.289062 L 82.40625 192.664062 C 82.40625 194.984375 84.675781 197.210938 87.03125 199.113281 L 71.769531 199.113281 C 73.941406 198.183594 76.023438 195.261719 76.210938 192.941406 C 76.394531 190.625 76.210938 160.707031 76.210938 159.40625 C 76.210938 156.578125 73.480469 154.257812 71.277344 152.496094 Z M 71.304688 152.527344 "/>
<path style=" stroke:none;fill-rule:nonzero;fill:rgb(100%,100%,100%);fill-opacity:1;" d="M 260.859375 199.050781 L 288.425781 199.050781 C 286.902344 198.679688 285.1875 196.871094 284.265625 194.457031 L 268.753906 152.527344 L 258.269531 152.527344 L 248.710938 159.320312 L 248.710938 159.578125 C 248.253906 162.359375 240.050781 192.152344 239.550781 193.59375 C 238.855469 195.632812 235.296875 197.90625 233.863281 199.113281 L 248.710938 199.113281 C 247.230469 197.441406 246.027344 195.820312 246.304688 193.964844 C 246.582031 192.109375 247.414062 188.398438 247.414062 188.398438 L 262.769531 188.398438 C 263.464844 190.253906 263.984375 191.921875 264.25 193.5 C 264.574219 195.402344 262.632812 197.535156 260.921875 199.019531 Z M 248.710938 182.492188 L 253.890625 165.484375 L 260.734375 182.492188 Z M 246.375 154.222656 L 248.664062 152.527344 L 244.699219 152.527344 C 245.101562 152.898438 245.765625 153.457031 246.4375 154.222656 Z M 140.964844 194.023438 L 142.078125 188.460938 L 157.433594 188.460938 C 158.128906 190.316406 158.644531 191.984375 158.914062 193.5625 C 159.238281 195.464844 157.292969 197.597656 155.582031 199.082031 L 179.851562 199.082031 L 181.394531 198.0625 C 180.453125 197.226562 179.585938 195.972656 179.019531 194.484375 L 163.476562 152.554688 L 139.425781 152.554688 C 140.582031 153.621094 143.910156 156.5 143.433594 159.605469 C 142.980469 162.390625 134.773438 192.179688 134.273438 193.621094 C 133.582031 195.660156 130.019531 197.933594 128.585938 199.140625 L 143.433594 199.140625 C 141.953125 197.46875 140.75 195.847656 141.027344 193.992188 Z M 148.675781 165.578125 L 155.519531 182.585938 L 143.496094 182.585938 Z M 224.804688 175.621094 L 210.464844 185.097656 C 212.722656 186.195312 214.519531 187.570312 214.691406 189.355469 C 215.011719 192.703125 208.308594 194.320312 202.25 193.625 C 201.035156 193.484375 199.84375 193.164062 198.710938 192.738281 L 194.894531 195.199219 L 190.175781 198.285156 L 190.175781 203.085938 C 191.410156 200.71875 194.007812 198.601562 196.050781 198.492188 C 196.929688 198.449219 199.980469 201.277344 212.5625 200.582031 C 218.667969 200.273438 230.464844 193.714844 230.277344 186.203125 C 230.167969 181.761719 227.855469 178.296875 224.800781 175.621094 Z M 190.183594 187.222656 L 190.183594 192.113281 L 193.46875 189.949219 C 191.773438 188.769531 190.578125 187.660156 190.183594 187.25 Z M 220.507812 172.550781 C 219.371094 171.878906 218.203125 171.265625 217.007812 170.707031 C 211.089844 167.925781 204.890625 167.414062 203.59375 163.65625 C 202.683594 161.007812 205.261719 158.554688 211.550781 158.648438 C 217.84375 158.738281 223.671875 162.496094 225.242188 163.84375 L 225.242188 151.875 C 224.78125 152.339844 222.75 154.671875 220.925781 154.289062 C 215.464844 153.160156 209.945312 152.605469 204.367188 152.617188 C 196.410156 152.664062 189.566406 158.800781 189.332031 166.625 C 189.011719 177.523438 197.707031 180.492188 202.609375 182.210938 L 204.316406 182.777344 L 214.882812 176.089844 L 220.503906 172.554688 Z M 220.507812 172.550781 "/>
</g>
</svg>
